<svg width="36" height="36" viewBox="0 0 36 36" fill="none" xmlns="http://www.w3.org/2000/svg">
<rect width="36" height="36" rx="18" fill="#F0E6F6"/>
<path fill-rule="evenodd" clip-rule="evenodd" d="M18 7C11.9249 7 7 11.9249 7 18C7 24.0751 11.9249 29 18 29C24.0751 29 29 24.0751 29 18C29 11.9249 24.0751 7 18 7ZM18 13C17.4477 13 17 13.4477 17 14C17 14.5523 17.4477 15 18 15H18.01C18.5623 15 19.01 14.5523 19.01 14C19.01 13.4477 18.5623 13 18.01 13H18ZM19 18C19 17.4477 18.5523 17 18 17C17.4477 17 17 17.4477 17 18V22C17 22.5523 17.4477 23 18 23C18.5523 23 19 22.5523 19 22V18Z" fill="#9D4EDD"/>
</svg>
