<svg width="57" height="56" viewBox="0 0 57 56" fill="none" xmlns="http://www.w3.org/2000/svg">
<path d="M51.8335 14.0003V19.647C51.8335 23.3337 49.5002 25.667 45.8135 25.667H37.8335V9.35699C37.8335 6.76699 39.9568 4.66699 42.5468 4.66699C45.0902 4.69033 47.4235 5.71699 49.1035 7.39699C50.7835 9.10033 51.8335 11.4337 51.8335 14.0003Z" fill="#616161"/>
<path opacity="0.4" d="M5.1665 16.3337V49.0003C5.1665 50.937 7.35985 52.0337 8.89985 50.867L12.8898 47.8803C13.8232 47.1803 15.1298 47.2737 15.9698 48.1137L19.8432 52.0103C20.7532 52.9203 22.2465 52.9203 23.1565 52.0103L27.0765 48.0903C27.8932 47.2737 29.1998 47.1803 30.1098 47.8803L34.0998 50.867C35.6398 52.0103 37.8332 50.9137 37.8332 49.0003V9.33366C37.8332 6.76699 39.9332 4.66699 42.4998 4.66699H16.8332H14.4998C7.49984 4.66699 5.1665 8.84366 5.1665 14.0003V16.3337Z" fill="#616161"/>
<path d="M27.9168 21.5837H23.2502V16.917C23.2502 15.9603 22.4568 15.167 21.5002 15.167C20.5435 15.167 19.7502 15.9603 19.7502 16.917V21.5837H15.0835C14.1268 21.5837 13.3335 22.377 13.3335 23.3337C13.3335 24.2903 14.1268 25.0837 15.0835 25.0837H19.7502V29.7503C19.7502 30.707 20.5435 31.5003 21.5002 31.5003C22.4568 31.5003 23.2502 30.707 23.2502 29.7503V25.0837H27.9168C28.8735 25.0837 29.6668 24.2903 29.6668 23.3337C29.6668 22.377 28.8735 21.5837 27.9168 21.5837Z" fill="#616161"/>
</svg>
