<svg width="48" height="49" viewBox="0 0 48 49" fill="none" xmlns="http://www.w3.org/2000/svg">
<g filter="url(#filter0_i_24945_4772)">
<path d="M24 0.5C10.776 0.5 0 11.276 0 24.5C0 37.724 10.776 48.5 24 48.5C37.224 48.5 48 37.724 48 24.5C48 11.276 37.224 0.5 24 0.5ZM32.064 30.02C32.76 30.716 32.76 31.868 32.064 32.564C31.704 32.924 31.248 33.092 30.792 33.092C30.336 33.092 29.88 32.924 29.52 32.564L24 27.044L18.48 32.564C18.12 32.924 17.664 33.092 17.208 33.092C16.752 33.092 16.296 32.924 15.936 32.564C15.24 31.868 15.24 30.716 15.936 30.02L21.456 24.5L15.936 18.98C15.24 18.284 15.24 17.132 15.936 16.436C16.632 15.74 17.784 15.74 18.48 16.436L24 21.956L29.52 16.436C30.216 15.74 31.368 15.74 32.064 16.436C32.76 17.132 32.76 18.284 32.064 18.98L26.544 24.5L32.064 30.02Z" fill="#FA1919"/>
</g>
<defs>
<filter id="filter0_i_24945_4772" x="0" y="0.5" width="48" height="48" filterUnits="userSpaceOnUse" color-interpolation-filters="sRGB">
<feFlood flood-opacity="0" result="BackgroundImageFix"/>
<feBlend mode="normal" in="SourceGraphic" in2="BackgroundImageFix" result="shape"/>
<feColorMatrix in="SourceAlpha" type="matrix" values="0 0 0 0 0 0 0 0 0 0 0 0 0 0 0 0 0 0 127 0" result="hardAlpha"/>
<feOffset/>
<feGaussianBlur stdDeviation="4"/>
<feComposite in2="hardAlpha" operator="arithmetic" k2="-1" k3="1"/>
<feColorMatrix type="matrix" values="0 0 0 0 0.0392157 0 0 0 0 0.0784314 0 0 0 0 0.117647 0 0 0 0.1 0"/>
<feBlend mode="normal" in2="shape" result="effect1_innerShadow_24945_4772"/>
</filter>
</defs>
</svg>
