<svg width="48" height="49" viewBox="0 0 48 49" fill="none" xmlns="http://www.w3.org/2000/svg">
<g filter="url(#filter0_i_24945_1205)">
<path d="M24 0.5C10.776 0.5 0 11.276 0 24.5C0 37.724 10.776 48.5 24 48.5C37.224 48.5 48 37.724 48 24.5C48 11.276 37.224 0.5 24 0.5ZM35.472 18.98L21.864 32.588C21.528 32.924 21.072 33.116 20.592 33.116C20.112 33.116 19.656 32.924 19.32 32.588L12.528 25.796C11.832 25.1 11.832 23.948 12.528 23.252C13.224 22.556 14.376 22.556 15.072 23.252L20.592 28.772L32.928 16.436C33.624 15.74 34.776 15.74 35.472 16.436C36.168 17.132 36.168 18.26 35.472 18.98Z" fill="#10BB76"/>
</g>
<defs>
<filter id="filter0_i_24945_1205" x="0" y="0.5" width="48" height="48" filterUnits="userSpaceOnUse" color-interpolation-filters="sRGB">
<feFlood flood-opacity="0" result="BackgroundImageFix"/>
<feBlend mode="normal" in="SourceGraphic" in2="BackgroundImageFix" result="shape"/>
<feColorMatrix in="SourceAlpha" type="matrix" values="0 0 0 0 0 0 0 0 0 0 0 0 0 0 0 0 0 0 127 0" result="hardAlpha"/>
<feOffset/>
<feGaussianBlur stdDeviation="4"/>
<feComposite in2="hardAlpha" operator="arithmetic" k2="-1" k3="1"/>
<feColorMatrix type="matrix" values="0 0 0 0 0.0392157 0 0 0 0 0.0784314 0 0 0 0 0.117647 0 0 0 0.1 0"/>
<feBlend mode="normal" in2="shape" result="effect1_innerShadow_24945_1205"/>
</filter>
</defs>
</svg>
