<svg width="44" height="44" viewBox="0 0 44 44" fill="none" xmlns="http://www.w3.org/2000/svg">
<rect x="1" y="1" width="42" height="42" rx="21" stroke="#FFB539" stroke-opacity="0.8" stroke-width="2"/>
<path d="M12.77 20C12.34 20 12 19.66 12 19.23V16.92C12 14.21 14.21 12 16.92 12H19.23C19.66 12 20 12.34 20 12.77C20 13.2 19.66 13.54 19.23 13.54H16.92C15.05 13.54 13.54 15.06 13.54 16.92V19.23C13.54 19.66 13.19 20 12.77 20Z" fill="#FFB742"/>
<path d="M31.23 20C30.81 20 30.46 19.66 30.46 19.23V16.92C30.46 15.05 28.94 13.54 27.08 13.54H24.77C24.34 13.54 24 13.19 24 12.77C24 12.35 24.34 12 24.77 12H27.08C29.79 12 32 14.21 32 16.92V19.23C32 19.66 31.66 20 31.23 20Z" fill="#FFB742"/>
<path d="M27.0799 32.0002H25.6899C25.2699 32.0002 24.9199 31.6602 24.9199 31.2302C24.9199 30.8102 25.2599 30.4602 25.6899 30.4602H27.0799C28.9499 30.4602 30.4599 28.9402 30.4599 27.0802V25.7002C30.4599 25.2802 30.7999 24.9302 31.2299 24.9302C31.6499 24.9302 31.9999 25.2702 31.9999 25.7002V27.0802C31.9999 29.7902 29.7899 32.0002 27.0799 32.0002Z" fill="#FFB742"/>
<path d="M19.23 32H16.92C14.21 32 12 29.79 12 27.08V24.77C12 24.34 12.34 24 12.77 24C13.2 24 13.54 24.34 13.54 24.77V27.08C13.54 28.95 15.06 30.46 16.92 30.46H19.23C19.65 30.46 20 30.8 20 31.23C20 31.66 19.66 32 19.23 32Z" fill="#FFB742"/>
<path d="M28.4595 21.23H27.0995H16.8995H15.5395C15.1095 21.23 14.7695 21.58 14.7695 22C14.7695 22.42 15.1095 22.77 15.5395 22.77H16.8995H27.0995H28.4595C28.8895 22.77 29.2295 22.42 29.2295 22C29.2295 21.58 28.8895 21.23 28.4595 21.23Z" fill="#FFAA1F"/>
<path d="M16.9004 23.94V24.27C16.9004 25.93 18.2404 27.27 19.9004 27.27H24.1004C25.7604 27.27 27.1004 25.93 27.1004 24.27V23.94C27.1004 23.82 27.0104 23.73 26.8904 23.73H17.1104C16.9904 23.73 16.9004 23.82 16.9004 23.94Z" fill="#FAAC2E"/>
<path d="M16.9004 20.06V19.73C16.9004 18.07 18.2404 16.73 19.9004 16.73H24.1004C25.7604 16.73 27.1004 18.07 27.1004 19.73V20.06C27.1004 20.18 27.0104 20.27 26.8904 20.27H17.1104C16.9904 20.27 16.9004 20.18 16.9004 20.06Z" fill="#FAAC2E"/>
</svg>
