<svg width="45" height="45" viewBox="0 0 45 45" fill="none" xmlns="http://www.w3.org/2000/svg">
<rect x="1" y="1" width="43" height="43" rx="21.5" stroke="#99D3ED" stroke-width="2"/>
<path opacity="0.4" d="M17.1104 16.4598L26.1304 13.4498C30.1804 12.0998 32.3804 14.3098 31.0404 18.3598L28.0304 27.3798C26.0104 33.4498 22.6904 33.4498 20.6704 27.3798L19.7804 24.6998L17.1004 23.8098C11.0404 21.7998 11.0404 18.4898 17.1104 16.4598Z" fill="#0091D2"/>
<path d="M22.1201 22.1301L25.9301 18.3101Z" fill="#0091D2"/>
<path d="M22.1196 22.88C21.9296 22.88 21.7396 22.81 21.5896 22.66C21.2996 22.37 21.2996 21.89 21.5896 21.6L25.3896 17.78C25.6796 17.49 26.1596 17.49 26.4496 17.78C26.7396 18.07 26.7396 18.55 26.4496 18.84L22.6496 22.66C22.4996 22.8 22.3096 22.88 22.1196 22.88Z" fill="#0091D2"/>
</svg>
