<svg width="54" height="54" viewBox="0 0 54 54" fill="none" xmlns="http://www.w3.org/2000/svg">
<rect x="1.5" y="1.5" width="51" height="51" rx="25.5" fill="#0A141E"/>
<rect x="1.5" y="1.5" width="51" height="51" rx="25.5" stroke="white" stroke-width="3"/>
<path d="M24 37H30C35 37 37 35 37 30V24C37 19 35 17 30 17H24C19 17 17 19 17 24V30C17 35 19 37 24 37Z" stroke="white" stroke-width="1.5" stroke-linecap="round" stroke-linejoin="round"/>
<path d="M24 25C25.1046 25 26 24.1046 26 23C26 21.8954 25.1046 21 24 21C22.8954 21 22 21.8954 22 23C22 24.1046 22.8954 25 24 25Z" stroke="white" stroke-width="1.5" stroke-linecap="round" stroke-linejoin="round"/>
<path d="M17.67 33.9496L22.6 30.6396C23.39 30.1096 24.53 30.1696 25.24 30.7796L25.57 31.0696C26.35 31.7396 27.61 31.7396 28.39 31.0696L32.55 27.4996C33.33 26.8296 34.59 26.8296 35.37 27.4996L37 28.8996" stroke="white" stroke-width="1.5" stroke-linecap="round" stroke-linejoin="round"/>
</svg>
