<svg width="372" height="188" viewBox="0 0 372 188" fill="none" xmlns="http://www.w3.org/2000/svg">
<path opacity="0.05" fill-rule="evenodd" clip-rule="evenodd" d="M258.749 -238.516C259.74 -238.488 260.732 -238.463 261.723 -238.44C272.1 -238.193 282.601 -237.781 292.826 -235.854C293.56 -235.719 294.295 -235.619 295.035 -235.525C298.093 -235.116 301.132 -234.587 304.17 -234.052L305.011 -233.905C306.643 -233.621 308.253 -233.29 309.862 -232.889C310.787 -232.665 311.727 -232.485 312.662 -232.307C314.378 -231.971 316.069 -231.575 317.76 -231.132C318.947 -230.821 320.137 -230.539 321.335 -230.276C323.135 -229.875 324.906 -229.392 326.679 -228.886C327.226 -228.731 327.775 -228.58 328.324 -228.43C332.343 -227.332 336.316 -226.098 340.269 -224.782C340.741 -224.625 341.215 -224.472 341.688 -224.319C344.064 -223.551 346.411 -222.716 348.754 -221.854L350.055 -221.383C351.801 -220.756 353.527 -220.091 355.249 -219.401L357.447 -218.523C358.398 -218.147 359.354 -217.782 360.31 -217.418C361.068 -217.114 361.793 -216.757 362.523 -216.391C363.234 -216.048 363.961 -215.751 364.691 -215.454L364.902 -215.368C366.079 -214.878 367.243 -214.358 368.407 -213.837L368.472 -213.808L369.468 -213.366C370.883 -212.738 372.277 -212.076 373.665 -211.392L374.27 -211.095C375.129 -210.673 375.985 -210.247 376.827 -209.793C377.349 -209.515 377.851 -209.272 378.399 -209.055C379.417 -208.627 380.378 -208.112 381.348 -207.586C382.331 -207.054 383.325 -206.552 384.327 -206.058C385.376 -205.537 386.368 -204.983 387.344 -204.334C388.006 -203.92 388.69 -203.557 389.381 -203.194C391.394 -202.134 393.355 -201.005 395.284 -199.799C395.815 -199.472 396.352 -199.156 396.893 -198.844C399.256 -197.482 401.548 -196.026 403.832 -194.538C404.31 -194.228 404.791 -193.923 405.272 -193.619C406.295 -192.971 407.296 -192.293 408.297 -191.612L410.005 -190.45C410.917 -189.817 411.373 -189.501 411.835 -189.194C412.297 -188.887 412.765 -188.59 413.702 -187.996L414.127 -187.702L414.117 -187.307L414.46 -187.234C414.969 -187.067 415.28 -186.841 415.703 -186.511C416.374 -185.999 417.052 -185.504 417.747 -185.024L418.227 -184.691L419.194 -184.027L419.642 -183.716L420.048 -183.437L420.337 -183.189L420.327 -182.794L420.647 -182.748C421.205 -182.541 421.595 -182.18 422.015 -181.791L422.272 -181.556L422.86 -181.343L422.849 -180.948L423.238 -180.819C424.004 -180.439 424.618 -179.918 425.262 -179.372L425.437 -179.224L426.85 -178.048C427.533 -177.485 428.226 -176.936 428.922 -176.389L430.79 -174.915L431.865 -174.062L432.193 -173.806C432.446 -173.603 432.688 -173.387 432.929 -173.169L432.918 -172.774L433.511 -172.759C433.725 -172.534 433.937 -172.307 434.142 -172.075C434.642 -171.577 435.21 -171.163 435.778 -170.748L436.079 -170.528C436.63 -170.088 437.086 -169.606 437.568 -169.093C438.127 -168.607 438.695 -168.134 439.265 -167.662L439.695 -167.257L439.685 -166.862L440.278 -166.847C440.506 -166.62 440.732 -166.391 440.946 -166.151C441.293 -165.775 441.661 -165.43 442.036 -165.083L442.424 -164.724C442.591 -164.572 442.686 -164.487 442.785 -164.407C442.914 -164.304 443.052 -164.211 443.367 -163.997L443.357 -163.602L443.674 -163.458C444.298 -163.092 444.774 -162.668 445.297 -162.167L445.286 -161.772L445.604 -161.627C446.622 -161.029 447.425 -160.156 448.218 -159.292L448.494 -158.993C449.059 -158.389 449.632 -157.808 450.248 -157.254C451.077 -156.504 451.836 -155.693 452.596 -154.874C453.035 -154.403 453.443 -154.007 453.972 -153.634L453.962 -153.239L454.549 -153.026L454.539 -152.63L455.127 -152.417C455.386 -152.084 455.641 -151.748 455.891 -151.409L456.474 -150.998L456.464 -150.603L457.051 -150.389L457.041 -149.994L457.629 -149.781C457.683 -149.723 457.726 -149.677 457.763 -149.637C457.809 -149.587 457.845 -149.546 457.881 -149.505C457.958 -149.415 458.031 -149.321 458.191 -149.113C458.916 -148.204 459.712 -147.375 460.528 -146.549C460.786 -146.283 461.034 -146.007 461.28 -145.73L461.269 -145.335L461.857 -145.122C461.979 -144.995 462.046 -144.925 462.109 -144.852C462.187 -144.764 462.259 -144.671 462.421 -144.465C462.866 -143.909 463.319 -143.365 463.792 -142.833L464.107 -142.48L464.736 -141.78C465.182 -141.278 465.487 -140.926 465.685 -140.276L466.273 -140.063C466.633 -139.626 466.768 -139.463 466.815 -139.278C466.843 -139.168 466.84 -139.05 466.835 -138.861L467.171 -138.72C467.726 -138.376 468.037 -137.96 468.42 -137.448L468.477 -137.372L468.913 -136.795L469.712 -135.712C470.11 -135.204 470.544 -134.748 470.988 -134.282L471.063 -134.202C471.431 -133.767 471.787 -133.323 472.141 -132.876L472.418 -132.531C473.464 -131.22 473.685 -130.943 473.726 -130.642C473.736 -130.562 473.734 -130.479 473.732 -130.375L474.319 -130.162C474.634 -129.772 474.92 -129.388 475.203 -128.977L475.438 -128.646C475.788 -128.145 476.039 -127.734 476.218 -127.146L476.613 -127.136C476.988 -126.66 477.34 -126.181 477.687 -125.686L478.358 -124.745L478.718 -124.237C479.106 -123.692 479.498 -123.151 479.89 -122.61L481.07 -120.985C481.797 -119.979 482.495 -118.959 483.175 -117.921C483.649 -117.208 484.156 -116.521 484.664 -115.832L484.849 -115.582C485.157 -115.106 485.306 -114.804 485.372 -114.25L485.767 -114.24C485.916 -114.051 485.997 -113.947 486.075 -113.84C486.17 -113.709 486.26 -113.573 486.458 -113.271L486.823 -112.725C486.958 -112.481 487.027 -112.357 487.061 -112.223C487.095 -112.085 487.091 -111.937 487.084 -111.635L487.479 -111.624C487.819 -111.144 488.133 -110.665 488.442 -110.165L488.706 -109.75C489.112 -109.1 489.419 -108.575 489.554 -107.813L489.949 -107.802C490.065 -107.637 490.13 -107.543 490.193 -107.446C490.275 -107.317 490.351 -107.185 490.528 -106.877L491.276 -105.592L491.606 -105.045L492.129 -104.186L493.345 -102.179L493.967 -101.15C494.411 -100.394 494.841 -99.6305 495.27 -98.8669L495.442 -98.5618L496.003 -97.5723C496.932 -95.9306 497.858 -94.288 498.759 -92.6304C498.998 -92.2 499.248 -91.7804 499.505 -91.3611C500.016 -90.5104 500.42 -89.6092 500.825 -88.7059L500.943 -88.4436C501.253 -87.778 501.622 -87.1569 502 -86.5277C502.371 -85.8916 502.69 -85.2327 503.011 -84.5704C503.479 -83.6129 503.953 -82.66 504.45 -81.7171C505.321 -80.0645 506.146 -78.4272 506.82 -76.6843C507.214 -75.6784 507.676 -74.7193 508.166 -73.7568C508.733 -72.6413 509.23 -71.5321 509.658 -70.3546C509.941 -69.636 510.269 -68.944 510.603 -68.2486C511.416 -66.5336 512.123 -64.7843 512.816 -63.0182L513.165 -62.1374C513.75 -60.6585 514.326 -59.1762 514.894 -57.6909L515.051 -57.2815C515.498 -56.1091 515.907 -54.9251 516.312 -53.7374C516.602 -52.8889 516.908 -52.0464 517.214 -51.2036L517.239 -51.1362C517.723 -49.8 518.173 -48.4558 518.604 -47.1016C518.842 -46.3556 519.093 -45.6191 519.374 -44.8881C519.723 -43.9673 519.981 -43.0306 520.24 -42.0807C520.469 -41.2558 520.715 -40.4371 520.966 -39.6184L521.107 -39.1555C521.336 -38.4059 521.568 -37.6572 521.804 -36.9098C522.411 -34.9779 522.929 -33.0322 523.415 -31.0666C523.74 -29.753 524.083 -28.4466 524.446 -27.143C524.933 -25.3777 525.338 -23.6007 525.724 -21.8107C525.825 -21.3433 525.929 -20.8764 526.033 -20.4095C526.104 -20.0899 526.176 -19.7703 526.247 -19.4507L526.316 -19.1441C526.575 -17.9852 526.832 -16.8257 527.087 -15.666L527.197 -15.168C527.904 -11.9429 528.434 -8.68226 528.965 -5.42381L529.205 -3.9547C529.394 -2.80321 529.589 -1.6532 529.792 -0.504237C529.973 0.534066 530.122 1.57136 530.247 2.61765C530.326 3.26242 530.413 3.9058 530.501 4.54928L530.589 5.18815L530.761 6.43539C530.94 7.75457 531.078 9.07477 531.194 10.4007C531.287 11.4599 531.391 12.5177 531.499 13.5754C531.923 17.7145 532.301 21.8486 532.522 26.0042L532.547 26.4811C532.915 33.4874 532.83 40.4648 532.629 47.4728C532.601 48.4641 532.576 49.4555 532.552 50.4469C532.271 62.2862 531.24 73.9468 529.378 85.643L529.279 86.2686C529.083 87.5052 528.88 88.7405 528.671 89.9751L528.596 90.428C527.819 95.0594 526.928 99.6865 525.77 104.238C525.478 105.393 525.219 106.555 524.959 107.718L524.928 107.86C524.574 109.433 524.194 110.988 523.748 112.537C523.508 113.372 523.286 114.21 523.063 115.049L523.047 115.109C521.942 119.28 520.717 123.396 519.366 127.494C519.095 128.317 518.83 129.141 518.565 129.965L518.094 131.424L517.957 131.851C517.484 133.313 516.962 134.757 516.436 136.201L516.294 136.593C515.493 138.796 514.675 140.991 513.831 143.177L513.596 143.789L512.837 145.759L512.599 146.376C512.195 147.418 511.763 148.433 511.273 149.438C511.005 149.998 510.782 150.572 510.557 151.15C508.659 155.921 506.544 160.72 504.081 165.225C503.727 165.875 503.406 166.522 503.129 167.208C502.734 168.176 502.219 169.072 501.7 169.974L501.523 170.281C500.995 171.206 500.51 172.139 500.054 173.102C499.118 175.03 498.068 176.891 496.955 178.721C496.312 179.787 495.721 180.875 495.146 181.978C494.785 182.671 494.4 183.333 493.976 183.988L493.393 185.01C492.996 185.7 492.584 186.36 492.117 187.004C491.693 187.592 491.314 188.184 490.958 188.815C490.189 190.168 489.347 191.477 488.506 192.785L488.095 193.424L487.13 194.94C486.716 195.591 486.297 196.238 485.864 196.876L485.5 197.414L484.418 199.004L483.944 199.699L483.525 200.316C483.292 200.663 483.06 201.012 482.831 201.362L482.444 201.953L482.103 202.48L481.815 202.851L481.419 202.841L481.339 203.189C481.141 203.817 480.769 204.329 480.387 204.853L480.185 205.132L479.901 205.542C479.661 205.882 479.405 206.212 479.147 206.538L478.752 206.528L478.681 206.863C478.507 207.396 478.252 207.779 477.929 208.237L477.602 208.707L477.301 209.061L476.906 209.051L476.849 209.376C476.647 209.953 476.324 210.345 475.946 210.805L475.856 210.914L475.345 211.545L475.088 211.862L474.737 212.306C474.528 212.575 474.323 212.846 474.118 213.118C472.438 215.314 470.686 217.456 468.936 219.596L468.268 220.413C467.995 220.753 467.736 221.104 467.485 221.46L467.09 221.45L466.939 221.764C466.596 222.366 466.18 222.9 465.752 223.442L465.502 223.767C465.288 224.038 465.062 224.297 464.833 224.555L464.438 224.544L464.284 224.871C463.965 225.423 463.578 225.862 463.155 226.34C462.592 226.981 462.042 227.624 461.521 228.299C461.041 228.914 460.519 229.432 459.945 229.964C459.377 230.536 459.093 230.822 458.822 231.12C458.552 231.416 458.294 231.724 457.78 232.338L457.501 232.668L457.106 232.658L456.924 233.011C456.829 233.185 456.773 233.287 456.712 233.387C456.623 233.534 456.523 233.674 456.279 234.02L455.884 234.01L455.717 234.361C455.459 234.806 455.203 235.075 454.822 235.416C453.826 236.333 452.924 237.326 452.05 238.359L451.605 238.842L451.21 238.831L451.038 239.185C450.797 239.606 450.568 239.868 450.212 240.194L449.87 240.513L449.513 240.839C448.838 241.46 448.18 242.072 447.588 242.774L447.138 243.273L446.743 243.263L446.53 243.851L446.135 243.84L445.922 244.428C445.589 244.687 445.252 244.942 444.913 245.192L444.502 245.775L444.107 245.765L443.894 246.352L443.498 246.342L443.285 246.93C443.156 247.05 443.083 247.118 443.009 247.182C442.919 247.259 442.825 247.331 442.619 247.49C441.859 248.1 441.152 248.751 440.451 249.426C439.375 250.46 438.271 251.433 437.075 252.329C436.38 252.863 435.769 253.475 435.15 254.095C434.95 254.272 434.859 254.353 434.753 254.387C434.665 254.416 434.567 254.414 434.388 254.409L434.175 254.997C433.837 255.289 433.485 255.566 433.127 255.834L432.518 256.296L431.955 256.718C431.043 257.416 430.189 258.151 429.399 258.987C429.29 259.076 429.224 259.13 429.149 259.162C429.031 259.212 428.89 259.209 428.528 259.199L428.4 259.53C428.028 260.112 427.518 260.459 426.965 260.837L426.839 260.922C425.984 261.515 425.234 262.132 424.477 262.85C424.097 263.124 423.711 263.39 423.319 263.648C422.939 263.878 422.753 263.991 422.593 264.134C422.438 264.273 422.309 264.438 422.054 264.765L421.461 264.749L421.248 265.337C420.789 265.693 420.33 266.024 419.85 266.351L418.496 267.293C417.768 267.806 417.054 268.337 416.34 268.868L416.197 268.974C415.034 269.834 413.866 270.685 412.682 271.515L412.298 271.787C411.691 272.208 411.504 272.338 411.3 272.374C411.209 272.391 411.115 272.388 410.978 272.385L410.968 272.78L410.304 273.121C409.877 273.348 409.562 273.536 409.209 273.871L408.956 274.111L408.363 274.096L408.352 274.491C407.897 274.805 407.442 275.096 406.97 275.382L406.138 275.895L405.724 276.149C404.764 276.745 403.8 277.355 402.904 278.045C402.734 278.154 402.639 278.216 402.534 278.249C402.403 278.29 402.256 278.287 401.925 278.278L401.915 278.673C401.426 278.986 400.938 279.277 400.433 279.561C399.472 280.113 398.524 280.668 397.607 281.292C396.863 281.796 396.104 282.214 395.302 282.617C394.792 282.889 394.33 283.21 393.858 283.541C393.466 283.797 393.069 284.011 392.652 284.222C391.654 284.737 390.677 285.287 389.701 285.843C387.551 287.062 385.388 288.253 383.199 289.402C382.469 289.786 381.749 290.181 381.036 290.597C380.095 291.136 379.119 291.59 378.134 292.043C377.056 292.54 375.99 293.06 374.927 293.589C373.367 294.363 371.798 295.11 370.218 295.841C369.517 296.166 368.818 296.494 368.118 296.822L366.994 297.347L366.197 297.723C365.524 298.042 364.861 298.346 364.154 298.584C363.136 298.951 362.155 299.387 361.168 299.828C359.6 300.53 358.021 301.183 356.419 301.805L355.761 302.07C354.884 302.42 353.998 302.741 353.111 303.066C351.918 303.504 350.731 303.952 349.553 304.431C348.409 304.892 347.252 305.284 346.078 305.659C345.546 305.833 345.023 306.016 344.501 306.215C342.058 307.133 339.571 307.934 337.071 308.679L336.295 308.913L334.101 309.581C333.218 309.848 332.336 310.119 331.456 310.398C329.311 311.073 327.157 311.641 324.968 312.156C323.76 312.441 322.561 312.74 321.369 313.086C319.001 313.775 316.624 314.344 314.209 314.842C313.274 315.036 312.341 315.238 311.408 315.443C308.275 316.129 305.144 316.758 301.978 317.28C301.132 317.423 300.288 317.582 299.445 317.74C297.886 318.03 296.324 318.275 294.755 318.5C294.223 318.578 293.692 318.658 293.16 318.738C291.304 319.018 289.452 319.285 287.584 319.469C286.765 319.552 285.948 319.655 285.132 319.757L284.817 319.797C282.698 320.062 280.585 320.292 278.456 320.443C277.7 320.497 276.948 320.573 276.195 320.654C266.363 321.65 256.505 321.636 246.64 321.353C245.649 321.325 244.657 321.299 243.666 321.276C231.826 320.995 220.166 319.964 208.47 318.102L207.844 318.003C206.607 317.806 205.372 317.604 204.138 317.395L203.643 317.312C201.039 316.872 198.456 316.348 195.874 315.794L195.116 315.634L192.094 314.983C188.28 314.167 184.508 313.247 180.74 312.234L179.362 311.867C175.216 310.763 174.221 310.498 173.238 310.196C172.928 310.101 172.619 310.002 172.212 309.873L171.138 309.531L168.228 308.615C167.328 308.331 166.428 308.05 165.527 307.773C163.783 307.235 162.073 306.671 160.378 305.992C159.766 305.758 159.153 305.562 158.524 305.374C155.499 304.447 152.533 303.276 149.641 301.994C148.699 301.593 147.739 301.254 146.772 300.918C145.357 300.393 143.981 299.768 142.607 299.144L141.777 298.768C140.322 298.113 138.864 297.477 137.387 296.875C136.656 296.566 135.948 296.217 135.237 295.864C134.69 295.597 134.137 295.35 133.58 295.105C132.581 294.661 131.603 294.184 130.627 293.691C129.915 293.332 129.199 292.981 128.478 292.639C126.844 291.864 125.237 291.074 123.674 290.163C122.796 289.654 121.901 289.192 120.991 288.744C119.307 287.91 117.672 286.997 116.038 286.068C115.455 285.738 114.871 285.41 114.286 285.082L114.252 285.062L111.715 283.63C110.126 282.719 108.569 281.754 107.012 280.79C106.817 280.669 106.622 280.548 106.427 280.428L105.971 280.146C104.444 279.203 102.932 278.248 101.45 277.234C101.009 276.941 100.563 276.671 100.106 276.406C99.2911 275.933 98.5145 275.417 97.7369 274.886C97.2479 274.554 96.7573 274.226 96.2641 273.901C94.197 272.534 92.1767 271.114 90.1768 269.651C89.7044 269.306 89.2303 268.964 88.7557 268.622C87.2298 267.523 85.7104 266.419 84.2158 265.278C83.4443 264.691 82.6561 264.135 81.8477 263.599L81.5619 263.363L81.5723 262.968L80.9794 262.952L80.9897 262.557L80.6015 262.428C79.8343 262.048 79.2189 261.526 78.574 260.979L78.4023 260.833L77.0004 259.665C76.1328 258.952 75.2444 258.266 74.3521 257.584C74.0367 257.339 73.731 257.082 73.4276 256.822L73.4379 256.427L73.1198 256.275C71.6886 255.455 70.399 254.26 69.1637 253.115L68.4283 252.438C68.1491 252.182 68.0098 252.054 67.8607 251.939C67.7122 251.824 67.5541 251.722 67.2384 251.518L67.2487 251.123L66.9229 250.969C66.1689 250.534 65.5171 249.939 64.8711 249.35C64.6953 249.19 64.5182 249.028 64.3414 248.872L63.9017 248.493C63.5895 248.221 63.288 247.937 62.9891 247.65L62.9995 247.255L62.6638 247.097C62.1497 246.798 61.777 246.451 61.3505 246.037L60.8434 245.548L60.2898 245.008L59.3565 244.101L58.7516 243.511C58.3146 243.085 57.8929 242.714 57.3928 242.362L57.4032 241.966L56.8155 241.753L56.8258 241.358L56.5082 241.214C55.4897 240.616 54.8165 239.851 54.1213 238.914L53.5388 238.503L53.5491 238.108L53.2014 237.942C52.7473 237.68 52.4516 237.408 52.092 237.028L51.7027 236.62L51.2884 236.179L50.8572 235.724L47.2902 231.952C46.6359 231.256 46.0332 230.555 45.4614 229.789C45.1785 229.542 44.8955 229.296 44.6093 229.053C44.0607 228.547 43.5684 227.975 43.1521 227.355L43.1625 226.96L42.5748 226.747L42.5851 226.352L41.9975 226.138C41.8686 226.004 41.7982 225.93 41.7313 225.854C41.6511 225.762 41.5756 225.666 41.4097 225.456C40.8479 224.756 40.2722 224.073 39.6839 223.396C37.905 221.335 37.6335 221.02 37.5997 220.682C37.5936 220.621 37.5953 220.559 37.5972 220.486L37.0095 220.273C36.6491 219.837 36.5146 219.674 36.4677 219.489C36.4397 219.378 36.4428 219.26 36.4477 219.072L35.86 218.859C35.1673 218.06 34.9745 217.838 34.9259 217.588C34.9071 217.492 34.9097 217.391 34.9133 217.252L34.5181 217.241C34.2628 216.841 34.0101 216.438 33.7587 216.035L33.3257 215.579C32.5677 214.78 31.8833 213.917 31.2673 213.004L31.2777 212.608L30.8824 212.598C30.7192 212.439 30.641 212.363 30.5663 212.284C30.4975 212.211 30.4316 212.135 30.3051 211.99C29.0473 212.395 27.8799 212.929 26.7053 213.527C25.5188 214.129 24.3242 214.677 23.0902 215.175C21.9668 215.629 20.8592 216.1 19.7648 216.62C17.9764 217.47 16.1679 218.273 14.3587 219.077L14.0996 219.192L11.1472 220.51C9.89492 221.07 8.64151 221.627 7.38578 222.179C5.94926 222.811 4.52207 223.458 3.1029 224.128C1.60259 224.833 0.0845632 225.499 -1.43371 226.164L-1.90964 226.373C-3.19783 226.937 -3.85117 227.223 -4.49392 227.512C-5.138 227.801 -5.77942 228.095 -7.0623 228.685C-8.63103 229.425 -10.2157 230.129 -11.8006 230.833L-12.4892 231.139C-13.4191 231.554 -14.3479 231.971 -15.2766 232.388L-15.6672 232.563C-18.0739 233.643 -20.4854 234.711 -22.9004 235.772C-24.5411 236.493 -26.1727 237.228 -27.7935 237.994C-28.6043 238.373 -29.4236 238.732 -30.2432 239.092L-30.3995 239.161C-31.5824 239.68 -32.7587 240.209 -33.9268 240.761C-35.7016 241.599 -37.4977 242.387 -39.295 243.175L-41.7751 244.266C-42.705 244.678 -43.6269 245.102 -44.5451 245.538C-45.5871 246.031 -46.6409 246.48 -47.7081 246.914C-49.0044 247.442 -50.2765 248.005 -51.5404 248.606C-52.4981 249.06 -53.4638 249.492 -54.436 249.914C-55.5364 250.393 -56.6282 250.885 -57.7131 251.398C-59.0505 252.03 -60.4001 252.631 -61.7548 253.225C-62.6954 253.639 -63.6275 254.065 -64.5551 254.507C-65.5925 254.998 -66.6419 255.44 -67.7054 255.87C-68.9134 256.359 -70.0844 256.891 -71.2454 257.483C-72.5449 258.145 -73.8626 258.721 -75.2146 259.268C-76.6186 259.837 -77.9863 260.473 -79.3535 261.125C-81.1546 261.984 -82.9598 262.824 -84.7965 263.605C-85.7805 264.025 -86.7571 264.464 -87.7336 264.902L-88.3802 265.192C-89.6411 265.756 -90.9041 266.316 -92.1687 266.872C-93.4827 267.451 -94.7844 268.05 -96.0826 268.663C-96.9182 269.05 -97.7624 269.415 -98.6083 269.778C-99.6997 270.25 -100.775 270.754 -101.85 271.261C-102.66 271.643 -103.475 271.998 -104.305 272.332C-104.911 272.587 -105.505 272.868 -106.099 273.15L-106.368 273.277C-107.898 273.997 -109.446 274.679 -110.994 275.362L-111.767 275.703L-112.748 276.137C-114.016 276.697 -115.283 277.258 -116.552 277.815C-118.192 278.536 -119.823 279.271 -121.442 280.036C-122.325 280.448 -123.218 280.839 -124.111 281.23L-124.539 281.417C-125.571 281.872 -126.594 282.343 -127.613 282.827C-128.65 283.32 -129.696 283.769 -130.764 284.191C-131.891 284.636 -132.974 285.137 -134.053 285.687C-135.361 286.353 -136.687 286.934 -138.048 287.483C-139.18 287.942 -140.285 288.443 -141.388 288.968C-142.485 289.488 -143.593 289.978 -144.707 290.459C-145.44 290.777 -146.165 291.106 -146.883 291.457L-147.324 291.671C-147.491 291.753 -147.659 291.835 -147.826 291.919C-147.935 291.973 -148.044 292.028 -148.152 292.083C-148.647 292.324 -149.072 292.516 -149.627 292.538C-150.136 292.191 -150.351 291.677 -150.578 291.133L-150.666 290.925L-150.858 290.494C-151.065 290.03 -151.268 289.565 -151.471 289.099L-152.523 286.714C-152.974 285.687 -153.442 284.671 -153.924 283.658C-154.496 282.455 -155.014 281.236 -155.497 279.994C-155.752 279.347 -156.03 278.733 -156.365 278.126C-156.581 277.723 -156.659 277.576 -156.685 277.421C-156.7 277.332 -156.697 277.241 -156.694 277.097L-153.948 275.813L-153.004 275.37C-151.859 274.832 -150.707 274.31 -149.55 273.799L-147.876 273.056L-144.284 271.459C-143.243 270.994 -142.209 270.519 -141.177 270.034C-140.346 269.647 -139.508 269.276 -138.669 268.905L-138.118 268.66C-137.125 268.22 -136.131 267.783 -135.136 267.349C-133.917 266.818 -132.706 266.274 -131.503 265.706C-129.709 264.859 -127.893 264.062 -126.075 263.265L-123.63 262.19C-122.7 261.778 -121.778 261.354 -120.86 260.917C-119.818 260.425 -118.764 259.976 -117.697 259.542C-115.992 258.847 -114.33 258.081 -112.669 257.288C-110.419 256.221 -108.148 255.205 -105.872 254.193L-103.494 253.131C-102.041 252.482 -100.588 251.834 -99.1317 251.193C-97.9099 250.656 -96.692 250.113 -95.4846 249.544C-93.3235 248.524 -91.134 247.566 -88.9438 246.611C-87.5977 246.023 -86.2571 245.429 -84.929 244.802C-82.0311 243.434 -79.0938 242.151 -76.1574 240.867L-74.787 240.268C-72.972 239.472 -71.1651 238.664 -69.3732 237.818C-68.5701 237.44 -67.7619 237.08 -66.9447 236.733C-66.0096 236.336 -65.0867 235.917 -64.1682 235.483C-62.2457 234.576 -60.303 233.714 -58.3601 232.852L-46.107 227.39C-45.0402 226.913 -43.9722 226.44 -42.9028 225.969C-41.681 225.432 -40.4631 224.889 -39.2558 224.32C-37.3098 223.402 -35.3396 222.536 -33.3697 221.671L-32.6117 221.338C-31.2182 220.725 -29.8269 220.111 -28.4499 219.461C-26.2887 218.442 -24.0992 217.483 -21.9091 216.528C-20.3741 215.858 -18.8504 215.171 -17.3358 214.457C-16.4533 214.042 -15.5636 213.652 -14.6632 213.278C-12.5628 212.387 -10.4781 211.455 -8.41482 210.481C-6.48583 209.571 -4.53281 208.714 -2.58 207.856L-1.79581 207.511C-0.167519 206.795 1.45187 206.066 3.06051 205.306C3.9546 204.888 4.85865 204.492 5.76269 204.096L6.1873 203.91C7.13453 203.494 8.07349 203.064 9.00782 202.62C10.0499 202.127 11.1037 201.678 12.1708 201.244C13.742 200.604 15.2784 199.906 16.8092 199.175C17.4081 198.89 18.0091 198.61 18.6101 198.33L18.8 198.241L20.0012 197.679L19.2403 196.469C18.9543 196.016 18.6663 195.564 18.3767 195.113L17.8647 194.311L17.6135 193.922C17.1858 193.25 16.8352 192.622 16.5942 191.855L16.1989 191.845C15.9974 191.518 15.8116 191.181 15.632 190.841L15.3205 190.32L14.803 189.46L14.5753 189.083C14.1824 188.436 13.7797 187.803 13.3423 187.185C13.1472 186.885 13.0555 186.744 13.0146 186.59C12.9783 186.453 12.9822 186.305 12.9895 186.026L12.5943 186.016L12.3043 185.465L11.9112 184.725L11.7221 184.365C11.3531 183.672 10.9617 183.003 10.5392 182.341C9.9009 181.339 9.32605 180.307 8.7542 179.266C8.30952 178.458 8.08719 178.054 7.86214 177.652C7.75733 177.465 7.65196 177.278 7.52325 177.051C7.37554 176.79 7.19711 176.476 6.95366 176.048L6.71225 175.629L6.2693 174.871C5.95149 174.32 5.78909 174.029 5.8061 173.38C4.59203 173.778 3.45505 174.278 2.3191 174.858C1.31122 175.372 0.302908 175.849 -0.743913 176.279C-1.65467 176.661 -2.55679 177.062 -3.45923 177.463L-4.01721 177.711C-5.02965 178.162 -6.03587 178.623 -7.03687 179.1C-8.074 179.591 -9.12411 180.033 -10.1872 180.463C-11.4675 180.982 -12.7045 181.552 -13.9331 182.183C-14.9474 182.702 -15.9825 183.156 -17.033 183.598C-17.5099 183.8 -17.9769 184.014 -18.4433 184.239C-18.9842 184.497 -19.5255 184.705 -20.0921 184.9C-21.0363 185.24 -21.9137 185.673 -22.8062 186.127C-24.1396 186.804 -25.4892 187.399 -26.8756 187.958C-28.0076 188.417 -29.1131 188.919 -30.2161 189.443C-31.1738 189.897 -32.1394 190.329 -33.1116 190.751C-34.212 191.23 -35.3037 191.723 -36.3886 192.235C-37.7261 192.867 -39.0756 193.469 -40.4304 194.062C-41.3709 194.476 -42.303 194.902 -43.2307 195.344C-44.2727 195.836 -45.3265 196.285 -46.3937 196.719C-47.69 197.247 -48.9621 197.81 -50.226 198.411C-51.1837 198.865 -52.1494 199.297 -53.1216 199.72C-54.222 200.198 -55.3138 200.691 -56.3987 201.203C-57.7265 201.831 -59.0663 202.428 -60.4114 203.017C-61.4375 203.468 -62.4538 203.936 -63.4659 204.417C-64.5029 204.91 -65.5485 205.359 -66.6163 205.781C-67.7434 206.226 -68.8262 206.727 -69.906 207.277C-71.214 207.943 -72.5396 208.523 -73.9001 209.073C-75.563 209.748 -77.1777 210.517 -78.7958 211.292C-80.7801 212.24 -82.7907 213.121 -84.8111 213.99C-86.3355 214.645 -87.8511 215.312 -89.3495 216.026C-90.4139 216.531 -91.4915 217.003 -92.5724 217.473C-93.5429 217.896 -94.5019 218.339 -95.4581 218.794C-96.5034 219.29 -97.5569 219.745 -98.6334 220.169C-99.7605 220.615 -100.843 221.115 -101.923 221.665C-103.231 222.331 -104.557 222.912 -105.918 223.462C-107.05 223.921 -108.155 224.422 -109.258 224.946C-110.356 225.467 -111.467 225.956 -112.582 226.441C-113.553 226.864 -114.512 227.308 -115.468 227.762C-116.513 228.259 -117.567 228.713 -118.643 229.137C-119.771 229.583 -120.853 230.083 -121.933 230.633C-123.241 231.299 -124.567 231.88 -125.928 232.43C-127.06 232.889 -128.165 233.39 -129.268 233.914C-130.226 234.369 -131.191 234.8 -132.163 235.223C-133.264 235.701 -134.356 236.194 -135.44 236.707C-136.778 237.339 -138.127 237.94 -139.482 238.534C-140.423 238.947 -141.355 239.373 -142.283 239.815C-143.325 240.308 -144.378 240.756 -145.445 241.191C-147.018 241.831 -148.555 242.529 -150.087 243.26C-154.359 245.298 -158.693 247.202 -163.026 249.105L-163.461 249.296C-164.908 249.932 -166.353 250.572 -167.783 251.247C-168.763 251.71 -169.751 252.142 -170.751 252.559C-171.285 252.788 -171.81 253.03 -172.335 253.279C-173.967 254.049 -175.618 254.781 -177.268 255.513L-178.288 255.965L-179.392 256.456C-182.137 257.678 -182.141 257.68 -183.495 258.275C-185.126 258.993 -186.752 259.724 -188.364 260.485C-189.247 260.898 -190.14 261.29 -191.034 261.681L-191.46 261.867C-192.493 262.322 -193.516 262.793 -194.535 263.277C-195.572 263.77 -196.617 264.219 -197.685 264.641C-198.812 265.086 -199.895 265.586 -200.975 266.136C-202.283 266.802 -203.609 267.384 -204.97 267.933C-206.101 268.392 -207.207 268.893 -208.31 269.417C-209.267 269.872 -210.233 270.304 -211.205 270.726C-213.079 271.541 -214.929 272.406 -216.773 273.288C-217.655 273.708 -218.524 274.109 -219.447 274.428C-220.401 274.765 -221.286 275.209 -222.186 275.666C-223.338 276.25 -224.484 276.762 -225.697 277.209C-226.701 277.602 -227.673 278.067 -228.645 278.533L-229.102 278.751C-230.973 279.642 -232.852 280.512 -234.752 281.341C-235.952 281.864 -237.149 282.396 -238.345 282.931L-243.622 285.289C-244.559 285.708 -245.496 286.125 -246.434 286.54C-247.996 287.231 -249.556 287.924 -251.101 288.653C-252.885 289.495 -254.686 290.295 -256.489 291.095L-258.425 291.956C-259.796 292.566 -261.167 293.176 -262.541 293.78C-264.154 294.49 -265.759 295.211 -267.353 295.964C-268.369 296.439 -269.395 296.893 -270.422 297.347L-271.011 297.608C-272.334 298.197 -273.649 298.799 -274.949 299.437C-275.61 299.754 -276.204 299.969 -276.935 300.052C-277.507 299.197 -277.92 298.347 -278.286 297.384C-278.811 296.045 -279.41 294.761 -280.068 293.483C-280.547 292.547 -280.965 291.594 -281.37 290.623C-281.622 290.028 -281.887 289.441 -282.158 288.855L-282.43 288.26L-282.988 287.055L-283.257 286.465L-283.5 285.939C-283.683 285.405 -283.696 285.01 -283.645 284.451C-281.929 283.627 -280.203 282.842 -278.443 282.116C-277.093 281.558 -275.762 280.973 -274.444 280.346C-273.408 279.855 -272.363 279.388 -271.314 278.928C-269.971 278.339 -268.64 277.729 -267.313 277.103C-266.6 276.772 -265.882 276.458 -265.16 276.148C-264.143 275.71 -263.135 275.254 -262.134 274.781C-260.23 273.883 -258.307 273.029 -256.384 272.176L-253.211 270.766L-244.097 266.699C-243.031 266.223 -241.963 265.749 -240.893 265.279C-239.671 264.741 -238.454 264.199 -237.246 263.629C-235.3 262.711 -233.329 261.846 -231.358 260.98L-230.602 260.648C-229.217 260.038 -227.834 259.428 -226.465 258.782C-224.899 258.044 -223.317 257.341 -221.734 256.637L-221.039 256.328C-219.978 255.856 -218.92 255.38 -217.861 254.904C-215.454 253.825 -213.042 252.757 -210.627 251.696C-209.222 251.078 -207.819 250.458 -206.43 249.803C-204.269 248.783 -202.08 247.825 -199.89 246.869C-198.394 246.217 -196.908 245.549 -195.432 244.852C-194.225 244.284 -193.005 243.746 -191.783 243.211C-190.842 242.797 -189.91 242.371 -188.983 241.929C-187.941 241.437 -186.887 240.988 -185.82 240.554C-184.523 240.026 -183.251 239.463 -181.987 238.862C-181.03 238.408 -180.064 237.976 -179.092 237.553C-177.991 237.075 -176.9 236.582 -175.815 236.07C-174.477 235.438 -173.128 234.836 -171.773 234.242C-170.832 233.829 -169.9 233.403 -168.973 232.961C-167.931 232.468 -166.877 232.02 -165.81 231.585C-164.105 230.891 -162.443 230.124 -160.782 229.332C-159.155 228.561 -157.521 227.815 -155.871 227.098C-154.893 226.671 -153.927 226.225 -152.964 225.767C-151.919 225.27 -150.865 224.816 -149.789 224.392C-148.494 223.88 -147.25 223.293 -146.013 222.656C-145.073 222.174 -144.116 221.754 -143.142 221.348C-142.279 220.985 -141.425 220.601 -140.571 220.217L-140.345 220.115C-138.96 219.494 -137.573 218.878 -136.181 218.271C-134.977 217.746 -133.786 217.198 -132.599 216.637C-131.392 216.069 -130.172 215.531 -128.95 214.995C-128.009 214.582 -127.077 214.156 -126.15 213.714C-125.108 213.221 -124.054 212.773 -122.987 212.338C-121.691 211.811 -120.42 211.248 -119.157 210.648C-118.173 210.181 -117.182 209.738 -116.184 209.303C-115.312 208.923 -114.442 208.543 -113.582 208.135C-112.655 207.695 -111.716 207.283 -110.777 206.87L-110.706 206.839C-109.591 206.348 -108.48 205.852 -107.379 205.331C-105.856 204.613 -104.317 203.932 -102.777 203.252L-102.317 203.048C-101.324 202.608 -100.333 202.164 -99.3413 201.721L-98.8697 201.51C-97.9259 201.089 -96.9816 200.668 -96.0362 200.25C-94.3269 199.494 -92.6235 198.729 -90.9333 197.931C-89.5574 197.284 -88.1658 196.673 -86.7738 196.062L-86.4458 195.918C-85.6337 195.56 -84.8231 195.199 -84.0124 194.839L-83.8412 194.762C-82.8043 194.301 -81.7672 193.84 -80.7283 193.383C-79.3419 192.773 -77.9575 192.163 -76.5876 191.516C-75.4061 190.959 -74.2161 190.423 -73.0226 189.892C-71.312 189.13 -69.6027 188.366 -67.8954 187.597L-66.807 187.107C-65.3911 186.469 -63.9825 185.818 -62.5795 185.152C-61.9039 184.844 -61.22 184.57 -60.529 184.299C-59.9301 184.045 -59.3358 183.781 -58.7412 183.517L-58.2385 183.295C-57.036 182.761 -55.8431 182.208 -54.6534 181.646C-53.6422 181.171 -52.6189 180.729 -51.5901 180.292C-50.8442 179.967 -50.1085 179.624 -49.3728 179.276C-47.8507 178.558 -46.3131 177.879 -44.7701 177.207L-42.3823 176.159L-41.8952 175.945C-40.9586 175.53 -40.0298 175.103 -39.1049 174.663C-38.0628 174.17 -37.009 173.722 -35.9419 173.288C-34.3698 172.647 -32.8325 171.949 -31.3005 171.218C-27.0282 169.18 -22.6935 167.276 -18.36 165.373L-17.9266 165.183C-16.5297 164.568 -15.1349 163.952 -13.7546 163.301C-12.3638 162.645 -10.9608 162.018 -9.55535 161.394C-8.47251 160.913 -7.39163 160.428 -6.3134 159.936L-5.62336 159.623L-4.29572 159.017L-3.68896 158.742L-3.15202 158.497C-2.94722 158.42 -2.83493 158.377 -2.71875 158.355C-2.57765 158.329 -2.43082 158.332 -2.10568 158.341C-2.46552 157.303 -2.85719 156.295 -3.33633 155.305C-3.91037 154.106 -4.40387 152.879 -4.89658 151.643C-5.25111 150.753 -5.42839 150.308 -5.61617 149.867C-5.80389 149.427 -6.00217 148.991 -6.39867 148.119C-7.53436 145.766 -8.44629 143.288 -9.29899 140.821C-9.60042 139.981 -9.92806 139.153 -10.2562 138.324L-10.2694 138.29C-10.8603 136.795 -11.4042 135.289 -11.9175 133.766C-12.0219 133.442 -12.0678 133.3 -12.1247 133.163C-12.1692 133.054 -12.2206 132.949 -12.3122 132.761C-14 133.417 -15.649 134.11 -17.2634 134.931C-18.3901 135.503 -19.5121 136.001 -20.6994 136.438C-21.7828 136.862 -22.8324 137.367 -23.8809 137.872L-24.5169 138.177C-26.6612 139.2 -27.2983 139.504 -27.9524 139.766C-28.2289 139.876 -28.5085 139.979 -28.9061 140.126C-29.8896 140.492 -30.8116 140.936 -31.7454 141.411C-33.0707 142.085 -34.4126 142.675 -35.7907 143.231C-36.9125 143.686 -38.0082 144.182 -39.1012 144.702C-40.1433 145.196 -41.1947 145.666 -42.2509 146.129C-43.6125 146.726 -44.961 147.345 -46.3054 147.98C-46.8674 148.24 -47.4324 148.485 -48.0042 148.722C-48.8827 149.088 -49.7452 149.484 -50.6056 149.89C-52.3935 150.734 -54.1997 151.535 -56.0082 152.333L-60.337 154.246L-61.2159 154.629C-62.7228 155.286 -64.2193 155.959 -65.7055 156.661C-66.9127 157.229 -68.1326 157.767 -69.3545 158.303C-70.2951 158.716 -71.2272 159.143 -72.1548 159.584C-73.1922 160.075 -74.2416 160.518 -75.3052 160.948C-76.5131 161.437 -77.6841 161.969 -78.8452 162.561C-80.1448 163.223 -81.4625 163.8 -82.8148 164.345C-83.9467 164.804 -85.0521 165.306 -86.1549 165.83C-87.1126 166.284 -88.0782 166.716 -89.0504 167.138C-90.9246 167.954 -92.7746 168.819 -94.6182 169.701C-95.4999 170.12 -96.3689 170.522 -97.2922 170.841C-98.2462 171.178 -99.1308 171.622 -100.031 172.079C-101.183 172.663 -102.329 173.175 -103.543 173.622C-104.709 174.078 -105.839 174.624 -106.967 175.17L-107.725 175.535C-109.708 176.482 -111.717 177.362 -113.735 178.23C-115.26 178.886 -116.775 179.553 -118.274 180.266C-119.337 180.771 -120.414 181.243 -121.494 181.712C-122.486 182.145 -123.467 182.596 -124.445 183.058C-125.463 183.538 -126.486 183.996 -127.526 184.429C-130.359 185.63 -133.173 186.896 -135.934 188.254L-136.317 188.439L-137.367 188.954C-137.967 189.187 -138.334 189.24 -138.966 189.166C-139.838 187.457 -140.679 185.771 -141.34 183.968C-141.633 183.239 -141.977 182.547 -142.334 181.848C-142.847 180.842 -143.324 179.837 -143.751 178.792C-143.976 178.256 -144.209 177.727 -144.448 177.198L-144.681 176.679L-145.149 175.648L-145.364 175.168L-145.56 174.737C-145.616 174.582 -145.649 174.489 -145.668 174.394C-145.695 174.257 -145.691 174.114 -145.682 173.763L-145.009 173.47C-144.088 173.069 -143.611 172.862 -143.15 172.656C-142.689 172.45 -142.231 172.239 -141.318 171.82C-140.389 171.379 -139.437 170.96 -138.496 170.547L-138.429 170.517C-137.305 170.023 -136.186 169.523 -135.076 168.998C-133.821 168.405 -132.552 167.844 -131.28 167.286C-130.333 166.869 -129.394 166.44 -128.46 165.995C-127.418 165.503 -126.364 165.054 -125.297 164.62C-124.01 164.096 -122.748 163.538 -121.493 162.942C-120.451 162.447 -119.4 161.977 -118.343 161.514C-117.01 160.929 -115.69 160.325 -114.373 159.703C-113.417 159.26 -112.437 158.833 -111.47 158.411C-110.738 158.092 -110.01 157.768 -109.288 157.425C-108.358 156.984 -107.416 156.57 -106.474 156.156L-106.411 156.129C-105.296 155.638 -104.186 155.142 -103.084 154.622C-100.923 153.602 -98.7337 152.643 -96.5435 151.688C-95.0086 151.019 -93.4848 150.332 -91.9702 149.617C-91.0872 149.202 -90.197 148.812 -89.296 148.437C-87.1197 147.515 -84.9616 146.545 -82.824 145.536C-81.0706 144.709 -79.2962 143.93 -77.5207 143.152L-77.4461 143.119C-75.4785 142.255 -73.517 141.385 -71.5739 140.467C-70.6791 140.048 -69.7743 139.652 -68.8695 139.256L-68.4471 139.071C-67.4999 138.654 -66.5609 138.225 -65.6266 137.78C-64.5846 137.287 -63.5308 136.839 -62.4636 136.404C-61.1769 135.88 -59.914 135.322 -58.6594 134.726C-57.6259 134.236 -56.5831 133.77 -55.5354 133.311C-54.2199 132.734 -52.9151 132.138 -51.6163 131.525C-50.5205 131.009 -49.4133 130.522 -48.3025 130.04C-47.3318 129.616 -46.3727 129.173 -45.4163 128.718C-44.371 128.222 -43.3175 127.768 -42.241 127.343C-41.1139 126.898 -40.0311 126.397 -38.9513 125.847C-37.6432 125.181 -36.3176 124.6 -34.9567 124.051C-33.8248 123.592 -32.7194 123.091 -31.6165 122.566C-30.6588 122.112 -29.6932 121.68 -28.721 121.258C-26.8468 120.442 -24.9968 119.578 -23.1532 118.695C-22.0774 118.183 -21.006 117.723 -19.883 117.326C-19.4141 117.149 -18.9682 116.947 -18.5171 116.729C-18.0586 116.515 -17.9001 116.441 -17.7346 116.418C-17.6471 116.406 -17.5577 116.408 -17.4212 116.412C-17.7134 114.981 -18.0689 113.577 -18.4595 112.17C-19.028 110.116 -19.5108 108.045 -19.9852 105.966C-20.1331 105.325 -20.2898 104.686 -20.4468 104.047C-21.4197 99.9772 -22.2272 95.8716 -22.9763 91.755C-23.0735 91.2263 -23.174 90.6984 -23.2768 90.1709C-23.743 87.7594 -24.077 85.3325 -24.4089 82.8994C-24.5597 81.7942 -24.719 80.6907 -24.8853 79.5878C-25.2313 77.2928 -25.5206 74.9957 -25.7683 72.688L-25.8455 71.9745C-26.1592 69.0566 -26.4518 66.1405 -26.6286 63.2104C-26.6592 62.715 -26.7034 62.2325 -26.7647 61.7392C-26.874 60.7391 -26.9168 59.7369 -26.9597 58.7326L-26.9754 58.3688L-27.0378 56.9798L-27.0649 56.3625C-27.0943 55.7927 -27.1315 55.2249 -27.1716 54.6559C-27.2609 53.2883 -27.2889 51.9203 -27.3152 50.5503L-27.3236 50.1316C-27.5155 40.5349 -27.3683 31.012 -26.725 21.4328L-26.6939 20.9664C-26.4744 17.6903 -26.2376 14.4257 -25.781 11.1724C-25.677 10.4045 -25.6011 9.63321 -25.5252 8.86201L-25.4822 8.42609C-25.0244 4.02145 -24.3798 -0.348598 -23.6373 -4.71359L-23.335 -6.51904C-22.9723 -8.70081 -22.5741 -10.8729 -22.1391 -13.0413L-21.9904 -13.7871C-21.1589 -17.9533 -20.8866 -19.3175 -20.5715 -20.6719C-20.4181 -21.3313 -20.2545 -21.9885 -20.0112 -22.9655C-19.866 -23.5555 -19.7254 -24.1465 -19.585 -24.7376C-18.6746 -28.5602 -17.7322 -32.3748 -16.5556 -36.1254C-16.222 -37.1923 -15.922 -38.2662 -15.629 -39.3449C-15.1301 -41.1683 -14.5539 -42.9596 -13.9499 -44.7506C-13.7827 -45.249 -13.6186 -45.7483 -13.4553 -46.248C-11.7924 -51.3213 -10.0363 -56.3738 -8.02106 -61.3187L-7.7178 -62.0739L-5.30109 -68.0248C-4.63476 -69.658 -3.91548 -71.2603 -3.17055 -72.859L-1.88579 -75.6681L-1.56039 -76.3818C-1.01443 -77.5731 -0.44668 -78.7386 0.177589 -79.8904C0.301297 -80.1694 0.420782 -80.4503 0.533378 -80.7339C1.06724 -81.9972 1.69468 -83.2153 2.32228 -84.4337L2.62473 -85.0219L3.47021 -86.6892C4.36491 -88.4582 5.26448 -90.2186 6.25795 -91.9344C6.75376 -92.7914 7.22019 -93.6611 7.68022 -94.5377C8.3241 -95.7614 9.022 -96.9362 9.74902 -98.1126C10.2104 -98.8729 10.6235 -99.6567 11.036 -100.444C11.5907 -101.502 12.1777 -102.506 12.8583 -103.486C13.6218 -104.653 14.3423 -105.84 15.0366 -107.049C15.4753 -107.812 15.9241 -108.57 16.3731 -109.327L16.7683 -109.317L16.9174 -109.819C17.192 -110.486 17.5009 -110.923 17.9419 -111.48C18.3028 -111.961 18.599 -112.474 18.8991 -112.993L18.9786 -113.13C19.2832 -113.653 19.5945 -114.17 19.9122 -114.685L20.2181 -115.184L20.491 -115.547L20.8863 -115.537L20.9678 -115.887C21.1075 -116.332 21.2752 -116.619 21.5463 -116.995L21.8137 -117.37L22.0938 -117.755L22.3667 -118.135L22.9025 -118.88C23.3084 -119.435 23.5114 -119.712 23.6981 -120C23.8846 -120.287 24.0551 -120.585 24.3958 -121.18L24.791 -121.169L24.9629 -121.597C25.2119 -122.147 25.4769 -122.631 25.8309 -123.12L26.2261 -123.109L26.2839 -123.429C26.5034 -124.066 26.8499 -124.534 27.2659 -125.06L27.6611 -125.049L27.7103 -125.362C27.9323 -125.982 28.3173 -126.459 28.722 -126.961L28.8398 -127.107L29.4526 -127.885L29.784 -128.303C30.3463 -129.014 30.9031 -129.73 31.4598 -130.445L31.6144 -130.643L31.9848 -131.118C32.7398 -132.086 33.4752 -133.064 34.1791 -134.07L34.4309 -134.364L34.8261 -134.354L34.8417 -134.947C35.0728 -135.173 35.3059 -135.398 35.5474 -135.614C36.0597 -136.104 36.4979 -136.66 36.9358 -137.217L37.1834 -137.53L37.5276 -137.958C38.0551 -138.617 38.5744 -139.28 39.0785 -139.956C39.5297 -140.549 40.0113 -141.009 40.5509 -141.521C41.2295 -142.294 41.9025 -143.076 42.5151 -143.903L42.7971 -144.23L43.1923 -144.22L43.3302 -144.531C43.691 -145.14 44.1491 -145.638 44.6243 -146.154L44.7291 -146.269C45.1312 -146.709 45.3322 -146.929 45.5236 -147.158C45.7149 -147.386 45.8966 -147.622 46.2601 -148.095L46.6553 -148.084L46.8266 -148.433C47.0695 -148.861 47.3199 -149.171 47.6572 -149.529L48.033 -149.928L49.1175 -151.046L49.4474 -151.384L50.1035 -152.052C50.5602 -152.517 50.9687 -152.964 51.3454 -153.499L51.7406 -153.488L52.1565 -154.268L52.5518 -154.258L52.7087 -154.588C53.1942 -155.432 53.856 -156.144 54.5952 -156.775L54.9904 -156.765L55.1435 -157.1C55.4604 -157.637 55.8331 -157.999 56.285 -158.429L56.8347 -158.954L57.4293 -159.516L58.0385 -160.095L59.3149 -161.304L62.8129 -164.626L64.1408 -165.883C64.3577 -166.061 64.4546 -166.141 64.5651 -166.175C64.6537 -166.202 64.7514 -166.199 64.9272 -166.195L64.9376 -166.59C65.2694 -166.85 65.6066 -167.104 65.9464 -167.354C66.443 -167.814 66.9268 -168.283 67.4045 -168.762C67.6053 -168.94 67.6962 -169.02 67.802 -169.055C67.8897 -169.083 67.9877 -169.081 68.1667 -169.076L68.3799 -169.664L68.7751 -169.653L68.9882 -170.241C69.3314 -170.533 69.6867 -170.81 70.0484 -171.078C70.6552 -171.531 71.219 -171.973 71.7634 -172.5C72.0386 -172.754 72.1488 -172.857 72.278 -172.895C72.3645 -172.921 72.4594 -172.919 72.6177 -172.915L72.6281 -173.31C73.2459 -173.834 73.4416 -174 73.663 -174.049C73.7656 -174.071 73.8738 -174.068 74.0321 -174.064L74.2453 -174.652L74.6405 -174.641L74.6509 -175.037C74.8385 -175.2 74.9444 -175.292 75.0512 -175.379C75.1829 -175.486 75.3192 -175.588 75.6229 -175.814L76.1691 -176.227C76.4141 -176.393 76.5392 -176.478 76.6736 -176.543C76.8127 -176.61 76.9622 -176.655 77.2665 -176.748L77.2768 -177.143C77.7167 -177.505 77.88 -177.639 78.0653 -177.685C78.1747 -177.713 78.2918 -177.71 78.478 -177.705L78.6912 -178.293C78.9059 -178.456 79.0224 -178.544 79.1419 -178.629C79.2837 -178.729 79.4296 -178.824 79.7487 -179.031C80.5553 -179.556 81.225 -180.115 81.9203 -180.779C82.3599 -181.131 82.8129 -181.464 83.2693 -181.794L83.6242 -182.057C84.2238 -182.493 84.4093 -182.628 84.6129 -182.666C84.7041 -182.683 84.7989 -182.681 84.9363 -182.677L85.1494 -183.265C85.6004 -183.618 86.0508 -183.945 86.5229 -184.267L87.3969 -184.875L87.8713 -185.203C88.4076 -185.577 88.9392 -185.958 89.4701 -186.341L90.0217 -186.737L91.0989 -187.514L91.5965 -187.87L92.0397 -188.189C92.2281 -188.306 92.319 -188.362 92.4177 -188.388C92.5095 -188.412 92.6082 -188.409 92.7986 -188.404L92.8089 -188.799L93.4018 -188.784L93.4122 -189.179C93.7539 -189.432 94.1095 -189.666 94.469 -189.893L95.1958 -190.357L95.6 -190.615C96.1881 -190.993 96.7701 -191.381 97.3523 -191.768L97.4267 -191.818C100.873 -194.111 104.345 -196.358 107.903 -198.474C108.494 -198.826 108.789 -199.002 109.08 -199.185C109.371 -199.367 109.658 -199.557 110.231 -199.936C110.872 -200.379 111.545 -200.731 112.239 -201.084C113.516 -201.744 114.756 -202.475 115.994 -203.204L116.655 -203.594C117.317 -203.969 117.987 -204.322 118.663 -204.671C119.474 -205.095 120.276 -205.537 121.078 -205.978L121.488 -206.203C123.433 -207.267 125.413 -208.257 127.407 -209.226C128.725 -209.868 130.042 -210.513 131.351 -211.174C135.149 -213.083 139.043 -214.824 142.98 -216.427C143.911 -216.808 144.822 -217.219 145.729 -217.654C146.339 -217.932 146.966 -218.157 147.597 -218.383L147.662 -218.406C148.176 -218.597 148.678 -218.807 149.181 -219.025C151.787 -220.141 154.464 -221.094 157.145 -222.011L158.381 -222.434C159.174 -222.708 159.958 -222.998 160.738 -223.308C162.086 -223.836 163.46 -224.273 164.839 -224.709L168.257 -225.802C169.409 -226.169 170.563 -226.526 171.72 -226.877C172.305 -227.054 172.889 -227.235 173.473 -227.417C175.553 -228.062 177.63 -228.671 179.747 -229.181C180.92 -229.464 182.086 -229.775 183.252 -230.086L183.755 -230.22C186.392 -230.92 189.045 -231.525 191.709 -232.109L193.195 -232.436C196.839 -233.241 200.485 -233.977 204.163 -234.611L205.682 -234.879C206.769 -235.073 207.853 -235.244 208.949 -235.38C210.015 -235.513 211.073 -235.676 212.133 -235.854C214.892 -236.317 217.648 -236.629 220.431 -236.894C221.505 -236.997 222.569 -237.135 223.636 -237.29C224.565 -237.417 225.497 -237.501 226.432 -237.581L227.092 -237.638L230.21 -237.898C239.733 -238.695 249.203 -238.791 258.749 -238.516ZM270.502 -95.0201C271.082 -94.9116 271.664 -94.8306 272.247 -94.7495L272.463 -94.7195C274.22 -94.4606 275.945 -94.0709 277.676 -93.6796C278.185 -93.5675 278.695 -93.464 279.206 -93.361C280.554 -93.0809 281.883 -92.7308 283.214 -92.3801L283.637 -92.2692C285.494 -91.781 287.344 -91.2794 289.179 -90.7098L290.083 -90.4374C294.715 -89.0274 299.23 -87.3084 303.673 -85.3865L304.286 -85.1221C309.795 -82.726 315.083 -79.8886 320.259 -76.8443C320.235 -75.9624 320.048 -75.7814 319.466 -75.2174L319.406 -75.16L319.033 -74.8103L318.641 -74.4339C318.206 -74.0163 317.767 -73.6018 317.328 -73.1871L316.392 -72.2927C315.543 -71.4816 314.691 -70.6732 313.839 -69.8654L311.71 -67.842C309.942 -66.1595 308.171 -64.4796 306.4 -62.8008C304.86 -61.3418 303.324 -59.8795 301.789 -58.4156C300.214 -56.9133 298.636 -55.4134 297.057 -53.9157C296.17 -53.0746 295.283 -52.2325 294.399 -51.3881C293.568 -50.5945 292.734 -49.8039 291.898 -49.0155L290.98 -48.141C290.565 -47.7429 290.146 -47.3487 289.726 -46.9553L289.359 -46.5985C289.018 -46.2827 289.018 -46.2825 288.4 -45.8405C288.103 -45.8578 287.967 -45.8658 287.836 -45.8992C287.724 -45.928 287.617 -45.9755 287.417 -46.0639L287.04 -46.222L286.671 -46.4087C281.899 -48.7458 276.799 -50.4478 271.688 -51.8748C271.346 -51.9732 271.005 -52.0768 270.665 -52.1864C269.113 -52.6864 267.537 -52.9852 265.935 -53.2759L264.543 -53.5349C263.538 -53.7216 262.531 -53.8925 261.523 -54.0589L260.94 -54.1569C257.223 -54.7689 253.55 -54.9475 249.793 -55.0231C249.21 -55.0358 248.626 -55.052 248.042 -55.0683L248.015 -55.069C243.596 -55.1904 239.214 -55.1769 234.837 -54.4734L234.097 -54.3595L232.674 -54.1369C232.17 -54.0573 231.666 -53.9812 231.161 -53.9085C225.496 -53.0653 219.894 -51.6211 214.562 -49.5319C213.995 -49.3122 213.424 -49.1059 212.852 -48.8996L212.615 -48.8138C209.333 -47.5916 206.23 -46.1498 203.134 -44.5138L202.576 -44.2219C200.288 -43.0247 198.06 -41.7766 195.906 -40.3525L195.56 -40.1256C192.052 -37.8179 188.696 -35.3169 185.52 -32.5691C185.24 -32.3294 184.958 -32.0911 184.672 -31.859C183.548 -30.9458 182.493 -29.9659 181.445 -28.9673L180.565 -28.134C179.505 -27.1287 178.484 -26.1016 177.509 -25.0141L176.921 -24.3806C175.505 -22.8429 174.188 -21.2461 172.909 -19.5936C172.62 -19.2217 172.328 -18.8522 172.035 -18.4832C170.636 -16.7118 169.352 -14.8755 168.097 -12.9999L167.541 -12.1748L167.004 -11.3723L166.765 -11.016C163.99 -6.83257 161.728 -2.21541 159.784 2.40484L159.576 2.89851C157.377 8.16596 155.471 13.7462 154.473 19.3779C154.365 19.9598 154.244 20.5386 154.122 21.1179L154.109 21.1817C151.892 31.8907 151.964 43.0558 153.493 53.8534L153.588 54.5349C153.672 55.1311 153.759 55.7267 153.848 56.3223L153.923 56.8266C154.075 57.7977 154.294 58.7309 154.561 59.6765C154.725 60.2637 154.873 60.8535 155.02 61.445C155.824 64.6635 156.742 67.8253 157.791 70.9726L157.931 71.4C158.834 74.1212 160.061 76.721 161.293 79.3055L161.762 80.294C164.233 85.522 167.212 90.365 170.608 95.0385L170.876 95.4086C174.088 99.8229 177.664 104.218 181.752 107.854C182.304 108.353 182.835 108.874 183.367 109.395C183.468 109.495 183.569 109.594 183.67 109.693C184.275 110.25 184.901 110.77 185.539 111.288C185.97 111.638 186.397 111.993 186.823 112.35C188.492 113.742 190.178 115.071 191.978 116.291C192.428 116.596 192.874 116.907 193.32 117.217L193.357 117.242C197.545 120.132 201.994 122.702 206.609 124.853L207.008 125.039C209.046 125.989 211.098 126.869 213.209 127.643L213.787 127.859L214.607 128.17C217.007 129.075 219.435 129.799 221.913 130.457C222.503 130.615 223.091 130.78 223.679 130.946C235.678 134.287 248.698 134.61 260.98 132.803L261.886 132.679C263.414 132.461 264.901 132.127 266.394 131.738C267.243 131.518 268.09 131.323 268.952 131.159C273.589 130.273 278.112 128.574 282.494 126.84L282.962 126.656C285.697 125.569 288.301 124.282 290.902 122.908L291.67 122.508C297.368 119.511 302.809 115.835 307.651 111.591C307.948 111.334 308.246 111.078 308.552 110.831C309.804 109.818 310.966 108.715 312.132 107.604L313.187 106.604C314.343 105.507 315.474 104.403 316.532 103.21L317.068 102.626C320.769 98.5269 324.005 94.0914 326.978 89.4433L327.302 88.943C327.917 87.9898 328.489 87.0312 329.008 86.0235C329.526 85.0328 330.06 84.0552 330.618 83.0868C331.311 81.8837 331.932 80.7127 332.407 79.4036C332.601 78.8913 332.83 78.4127 333.076 77.9233C333.833 76.396 334.48 74.8241 335.115 73.243L335.274 72.8471C336.117 70.7218 336.764 68.5358 337.409 66.3447L337.535 65.9172C338.049 64.1771 338.504 62.437 338.885 60.6629C338.961 60.3414 338.994 60.2018 339.046 60.0704C339.086 59.9702 339.137 59.8744 339.227 59.7058C339.302 59.2844 339.37 58.8615 339.433 58.4381C339.584 57.4476 339.752 56.4651 339.947 55.4823C340.373 53.3049 340.616 51.1284 340.819 48.9205L340.919 47.878L341.471 41.9669C337.574 43.6748 333.722 45.4794 329.87 47.2844L298.272 62.0751C297.302 62.5296 296.324 62.9641 295.34 63.3891C293.961 63.992 292.608 64.6348 291.263 65.3108C289.013 66.4411 286.724 67.4743 284.417 68.4829C283.301 68.9747 282.211 69.504 281.125 70.0595C280.061 70.5996 278.973 71.0745 277.877 71.5465C276.938 71.9544 276.019 72.3918 275.107 72.8582C273.914 73.468 272.701 74.0128 271.471 74.5427C270.531 74.9506 269.613 75.3881 268.701 75.8544C267.648 76.3926 266.583 76.8849 265.497 77.3525C264.42 77.8167 263.363 78.3046 262.319 78.839C261.196 79.4126 260.058 79.9376 258.903 80.4428C256.773 81.3743 254.662 82.3372 252.585 83.3827C250.919 84.2216 249.231 84.9988 247.523 85.7497C246.453 86.221 245.389 86.7045 244.33 87.2011L243.909 87.3982C242.412 88.0998 240.916 88.8048 239.421 89.5099C235.708 91.2604 231.993 93.0069 228.277 94.7515C226.134 95.7583 223.99 96.7662 221.848 97.7769C219.971 98.6625 218.093 99.5458 216.214 100.426C215.222 100.892 214.23 101.358 213.239 101.827C212.31 102.267 211.379 102.704 210.448 103.138L209.424 103.622C208.96 103.843 208.494 104.06 208.027 104.276L207.619 104.474C206.774 104.859 206.246 104.928 205.358 104.65C205.14 104.551 205.032 104.502 204.927 104.447C204.823 104.394 204.721 104.334 204.52 104.216L204.057 103.945L203.567 103.651L203.051 103.344C197.541 100.035 192.455 96.108 187.848 91.6307C187.572 91.3661 187.295 91.1025 187.01 90.8478C185.805 89.7674 184.698 88.5957 183.587 87.4208L183.431 87.2563L182.346 86.1137C181.203 84.9102 180.08 83.7054 179.046 82.4056L178.5 81.7424C173.376 75.4852 172.796 74.7772 172.748 74.0347C172.742 73.94 172.745 73.8447 172.747 73.7373L229.451 47.2156C230.392 46.7748 231.34 46.3549 232.294 45.9428C233.674 45.3399 235.026 44.6971 236.371 44.0211C238.621 42.8908 240.911 41.8576 243.217 40.849C244.333 40.3572 245.424 39.8279 246.509 39.2724C247.573 38.7323 248.661 38.2574 249.757 37.7854C250.697 37.3775 251.615 36.9401 252.527 36.4737C253.72 35.8639 254.933 35.3191 256.163 34.7892C257.103 34.3813 258.022 33.9438 258.934 33.4775C259.978 32.9436 261.035 32.4547 262.112 31.991C263.274 31.4909 264.412 30.9581 265.541 30.3876C266.809 29.7467 268.092 29.1615 269.397 28.5999C270.457 28.1403 271.487 27.6353 272.515 27.1095C273.587 26.5667 274.681 26.088 275.783 25.6131C276.723 25.2052 277.642 24.7677 278.554 24.3014C279.747 23.6915 280.96 23.1467 282.19 22.6168C283.13 22.2089 284.048 21.7715 284.96 21.3051C286.153 20.6953 287.366 20.1505 288.596 19.6206C289.536 19.2126 290.455 18.7752 291.367 18.3089C292.42 17.7707 293.484 17.2784 294.57 16.8107C295.631 16.3537 296.671 15.8747 297.698 15.3477C298.971 14.6956 300.269 14.1107 301.577 13.5335C302.861 12.9672 304.132 12.393 305.381 11.7545C306.805 11.0276 308.258 10.3774 309.721 9.73381C310.774 9.26999 311.82 8.79507 312.862 8.30638L366.154 -16.6218C367.302 -17.1596 368.462 -17.6687 369.626 -18.1719C370.345 -18.486 371.046 -18.8096 371.733 -19.1896C372.121 -19.3956 372.264 -19.4717 372.416 -19.4974C372.505 -19.5124 372.597 -19.51 372.743 -19.5062L374.361 -16.0781C375.324 -14.0445 376.212 -11.9934 377.04 -9.90154L377.269 -9.33358C377.938 -7.6686 378.598 -6.01232 379.071 -4.27883C379.218 -3.81616 379.385 -3.39549 379.578 -2.9516C380.114 -1.67468 380.515 -0.350694 380.916 0.973228L381.034 1.3637L381.178 1.83692C382.637 6.6484 383.778 11.5148 384.56 16.4825C384.721 17.4954 384.899 18.5055 385.082 19.5147C385.704 22.9432 386.117 26.3718 386.391 29.8432C386.433 30.3837 386.48 30.9234 386.529 31.4635C386.951 36.14 386.839 40.8001 386.713 45.4875L386.7 45.9757C386.675 46.9149 386.649 47.854 386.62 48.7931L386.593 49.6637C386.552 51.0642 386.494 52.4363 386.248 53.818C386.222 54.0897 386.2 54.3618 386.185 54.6344L386.129 55.5328C385.889 58.9535 385.533 62.4268 384.698 65.7576C384.51 66.5267 384.363 67.2989 384.218 68.0771C382.864 75.197 380.78 82.1042 378.364 88.9293L377.918 90.1987C377.29 91.971 376.579 93.7015 375.839 95.4293L375.309 96.6801C374.777 97.9376 374.219 99.1573 373.56 100.353C373.487 100.51 373.414 100.667 373.341 100.824C373.261 100.996 373.183 101.168 373.104 101.341C371.133 105.648 368.777 109.784 366.286 113.807L365.826 114.56C364.694 116.403 363.502 118.191 362.248 119.953L361.389 121.168C359.137 124.353 356.777 127.434 354.214 130.376C353.79 130.866 353.374 131.363 352.959 131.862C352.263 132.691 351.527 133.473 350.776 134.252C350.31 134.75 349.871 135.264 349.433 135.786C348.646 136.71 347.802 137.538 346.915 138.363C346.377 138.864 345.858 139.369 345.37 139.919C343.862 141.596 342.168 143.179 340.407 144.587C339.886 145.018 339.384 145.468 338.88 145.919C337.701 146.974 336.513 147.994 335.25 148.949C334.765 149.32 334.291 149.702 333.82 150.09C332.118 151.483 330.325 152.742 328.523 154.001C328.245 154.196 327.968 154.391 327.691 154.588C327.556 154.684 327.422 154.78 327.287 154.876C323.983 157.222 320.512 159.362 316.987 161.361L316.477 161.652C307.569 166.698 298.053 170.775 288.229 173.654C287.624 173.831 287.02 174.012 286.417 174.194C284.041 174.904 281.655 175.486 279.229 175.995L277.899 176.281L277.399 176.387C276.923 176.506 276.467 176.647 276 176.799C275.041 177.095 274.098 177.218 273.101 177.318C272.033 177.426 271.003 177.57 269.958 177.821C268.517 178.154 267.065 178.288 265.597 178.424L265.532 178.429L264.296 178.548L263.185 178.653C262.8 178.695 262.414 178.745 262.032 178.812C261.51 178.901 261.004 178.934 260.476 178.958L259.839 178.988L259.177 179.017L257.188 179.109C256.637 179.141 256.091 179.181 255.541 179.231C252.488 179.5 249.448 179.435 246.389 179.35C245.792 179.334 245.195 179.319 244.598 179.307C240.495 179.225 236.463 178.926 232.392 178.399C231.61 178.297 230.828 178.203 230.045 178.111C229.616 178.059 229.189 178.004 228.761 177.947C228.429 177.902 228.098 177.857 227.766 177.811L227.278 177.747C222.535 177.105 217.856 175.987 213.223 174.798L212.593 174.636C211.627 174.382 211.321 174.302 211.025 174.191C210.888 174.139 210.753 174.081 210.555 173.996C210.109 173.804 209.695 173.678 209.222 173.568C204.639 172.468 200.125 170.726 195.823 168.816C195.063 168.479 194.295 168.175 193.518 167.88C191.797 167.225 190.142 166.485 188.527 165.6C187.912 165.279 187.288 164.985 186.659 164.692C185.383 164.097 184.166 163.497 182.996 162.709C182.342 162.295 181.663 161.94 180.978 161.582L180.953 161.569C179.82 160.975 178.722 160.347 177.644 159.657C177.112 159.327 176.575 159.015 176.032 158.705C174.878 158.038 173.764 157.319 172.654 156.581L172.041 156.173C167.981 153.46 164.061 150.531 160.338 147.372L159.953 147.046C158.52 145.837 157.11 144.618 155.763 143.312C155.302 142.878 154.822 142.477 154.334 142.073C153.173 141.085 152.143 139.982 151.106 138.864C150.464 138.174 149.818 137.507 149.116 136.877C148.287 136.126 147.597 135.286 146.915 134.402C146.844 134.312 146.789 134.242 146.74 134.183C146.702 134.137 146.667 134.097 146.631 134.058C146.515 133.933 146.384 133.821 146.067 133.551C145.069 133.556 144.231 133.962 143.359 134.385L143.12 134.5L142.61 134.741L140.997 135.507L137.856 136.994C135.84 137.951 133.825 138.904 131.776 139.789C130.097 140.522 128.459 141.325 126.823 142.148C126.307 142.407 125.789 142.658 125.268 142.906L124.812 143.124C124.636 143.195 124.546 143.231 124.454 143.248C124.359 143.265 124.26 143.263 124.06 143.258L116.914 127.979L116.212 126.485C115.531 125.04 114.87 123.589 114.231 122.125C113.671 120.844 113.078 119.59 112.441 118.346C111.901 117.281 111.426 116.193 110.954 115.097C110.496 114.041 109.993 113.015 109.469 111.99C108.87 110.808 108.338 109.598 107.814 108.381C107.4 107.424 106.947 106.503 106.446 105.588C106.356 105.401 106.312 105.308 106.292 105.211C106.272 105.117 106.275 105.018 106.28 104.824C108.192 103.852 110.116 102.929 112.082 102.07C114.382 101.064 116.642 99.9841 118.886 98.8582C120.003 98.3014 121.136 97.7958 122.296 97.3329C122.197 96.6394 122.032 96.0551 121.752 95.4138L121.522 94.8812L121.275 94.3152C119.929 91.1784 118.695 88.0393 117.691 84.7757L117.145 83.0229C115.824 78.7907 114.575 74.5503 113.768 70.1849C113.6 69.2753 113.388 68.3931 113.13 67.5053C112.782 66.1926 112.599 64.828 112.417 63.4745C112.386 63.243 112.355 63.0118 112.323 62.7813C112.302 62.6292 112.281 62.4774 112.259 62.326C112.114 61.3253 111.966 60.3255 111.806 59.327C111.386 56.671 111.156 54.0432 111.041 51.3575L111.01 50.6303C110.966 49.6203 110.922 48.6103 110.882 47.6002L110.854 46.9055L110.831 46.2959C110.803 45.7564 110.764 45.2216 110.719 44.6835C110.637 43.5928 110.644 42.5121 110.668 41.4192L110.681 40.7827L110.729 38.7303L110.747 38.0176C110.918 31.5663 111.482 25.1426 112.488 18.7663L112.577 18.1887C112.867 16.334 113.188 14.5117 113.688 12.7006C113.868 12.0094 114.002 11.3166 114.135 10.6151C115.376 4.30457 117.333 -1.97006 119.713 -7.93878L119.938 -8.50984C121.045 -11.3172 122.237 -14.0802 123.489 -16.8255C123.684 -17.2557 123.878 -17.6868 124.07 -18.1186C124.848 -19.8505 125.728 -21.5173 126.638 -23.1821L126.957 -23.7686C129.626 -28.6785 132.465 -33.4328 135.727 -37.9733L136.021 -38.385C139.739 -43.5851 143.726 -48.5727 148.153 -53.1915C148.454 -53.5064 148.754 -53.8231 149.052 -54.1413C149.963 -55.113 150.897 -56.0449 151.876 -56.9479C152.06 -57.1187 152.162 -57.2127 152.252 -57.3164C152.362 -57.4431 152.455 -57.5844 152.662 -57.8983L153.057 -57.8879L153.198 -58.2187C153.539 -58.7751 153.958 -59.1243 154.449 -59.5333L154.548 -59.6163C155.475 -60.3995 156.362 -61.2107 157.232 -62.055C158.178 -62.9658 159.155 -63.7872 160.206 -64.5757C160.804 -65.0389 161.37 -65.5326 161.934 -66.0352C163.11 -67.0734 164.347 -68.0057 165.615 -68.9273C166.037 -69.2362 166.457 -69.549 166.876 -69.8624C170.039 -72.2235 173.32 -74.3817 176.68 -76.4513L177.127 -76.7266C183.757 -80.7896 191.118 -84.8997 198.535 -87.3291C199.084 -87.5191 199.609 -87.7346 200.14 -87.9678C201.306 -88.4662 202.489 -88.8928 203.689 -89.3024L204.326 -89.5215C205.579 -89.9478 206.83 -90.344 208.109 -90.6814C208.764 -90.8577 209.408 -91.0587 210.056 -91.2615C214.058 -92.493 218.13 -93.4181 222.234 -94.2426L222.851 -94.367C226.328 -95.0565 229.834 -95.5146 233.352 -95.929L233.984 -96.0036C235.144 -96.1371 236.306 -96.2488 237.47 -96.344C237.906 -96.3806 238.342 -96.4201 238.778 -96.4621C249.106 -97.4367 260.328 -97.0378 270.502 -95.0201ZM79.0253 73.2577L79.173 73.5925L79.185 73.6198C79.7796 74.9679 80.0789 75.6464 80.3841 76.3223C80.6912 77.0027 81.0042 77.6805 81.6302 79.036C83.0934 82.1386 84.4869 85.2718 85.7463 88.4628L85.1149 88.7367C83.6746 89.364 82.2392 89.9983 80.8188 90.6697C79.3619 91.3574 77.8927 92.0159 76.4207 92.6706C74.8327 93.3772 73.2475 94.09 71.6634 94.8052C69.6525 95.7129 67.6403 96.6178 65.6263 97.5187C64.5168 98.0154 63.4083 98.5143 62.3013 99.0164C59.8022 100.149 57.2973 101.263 54.7699 102.332C53.5302 102.858 52.3054 103.407 51.0894 103.985C50.0767 104.466 49.054 104.922 48.0272 105.372C46.8695 105.88 45.718 106.397 44.575 106.937C43.1264 107.621 41.6655 108.276 40.2018 108.927C38.6138 109.633 37.0287 110.346 35.4446 111.061C33.4338 111.969 31.4215 112.873 29.4079 113.775C27.8003 114.495 26.1943 115.219 24.5887 115.943C22.6805 116.804 20.7705 117.661 18.8582 118.514C17.1901 119.257 15.525 120.008 13.8602 120.76C12.1764 121.52 10.4915 122.277 8.80534 123.032C7.1268 123.784 5.4495 124.538 3.77318 125.294L-0.159296 127.068C-2.74426 128.235 -5.33593 129.382 -7.94898 130.485C-9.04388 130.95 -10.0934 131.437 -11.1193 132.042C-11.3101 132.115 -11.4069 132.152 -11.5068 132.166C-11.6095 132.179 -11.7156 132.168 -11.9307 132.146C-12.0657 132.081 -12.1502 132.04 -12.2185 131.981C-12.3327 131.881 -12.4015 131.73 -12.5852 131.325C-12.6832 131.026 -12.7775 130.725 -12.8691 130.424L-13.0301 129.921L-13.383 128.801C-13.5892 128.14 -13.8015 127.482 -14.0146 126.825C-16.0161 120.612 -16.4797 119.173 -16.7691 117.699C-16.8564 117.255 -16.9278 116.808 -17.0208 116.226C-15.2625 115.392 -13.4966 114.58 -11.7167 113.794C-10.4846 113.249 -9.25705 112.698 -8.03924 112.123C-6.3456 111.323 -4.63465 110.563 -2.9233 109.802L-2.422 109.579L1.239 107.942C2.73489 107.271 4.22965 106.598 5.72403 105.923L9.64897 104.153C12.0611 103.065 14.4799 101.994 16.9106 100.948C18.5117 100.259 20.1057 99.5611 21.6797 98.812C22.6874 98.3332 23.7057 97.8807 24.7274 97.4324C25.809 96.9575 26.8861 96.4765 27.9543 95.9719C29.3298 95.3232 30.7176 94.704 32.107 94.0858C33.7017 93.3759 35.2936 92.66 36.8845 91.9417C38.6928 91.1255 40.5018 90.3113 42.3125 89.5007C43.9911 88.7493 45.6683 87.9951 47.3446 87.2387L51.2771 85.465C53.8398 84.3081 56.4116 83.1769 58.9971 82.072C60.3036 81.5119 61.598 80.9338 62.8816 80.3231C63.8875 79.8453 64.9037 79.3932 65.9236 78.946C67.0813 78.438 68.2329 77.9205 69.3759 77.3803C71.2668 76.4875 73.1774 75.6392 75.0892 74.7924L76.1217 74.334L78.097 73.4597C78.4108 73.3347 78.5399 73.2833 78.6736 73.2642C78.7671 73.2509 78.8627 73.2534 79.0253 73.2577ZM128.439 149.697C128.559 149.907 128.626 150.024 128.687 150.144C128.765 150.295 128.834 150.451 128.99 150.805L129.308 151.516L129.644 152.287L129.995 153.077C130.853 155.014 131.689 156.962 132.52 158.911C133.103 160.275 133.707 161.626 134.357 162.96C134.636 163.54 134.842 164.07 134.968 164.7L134.336 164.974L133.468 165.353L133.057 165.53C131.911 166.031 130.778 166.559 129.646 167.091C128.082 167.825 126.51 168.543 124.936 169.257L124.476 169.466C122.461 170.382 120.438 171.273 118.395 172.125C117.228 172.613 116.08 173.131 114.938 173.674C113.919 174.158 112.889 174.617 111.856 175.07C110.698 175.578 109.547 176.095 108.404 176.636C106.955 177.319 105.494 177.974 104.03 178.625C102.442 179.331 100.857 180.044 99.2732 180.759C96.4295 182.043 93.5827 183.319 90.735 184.594C88.1781 185.739 85.6226 186.887 83.0691 188.039C81.1898 188.887 79.309 189.732 77.4272 190.574C75.8282 191.29 74.2309 192.01 72.6339 192.73C70.6311 193.634 68.6269 194.535 66.6213 195.433C65.1462 196.093 63.6723 196.757 62.1989 197.422L58.2664 199.195C55.7037 200.352 53.132 201.483 50.5464 202.588C49.24 203.149 47.9454 203.727 46.6619 204.337C45.6559 204.815 44.6398 205.267 43.6199 205.714C42.4622 206.222 41.3107 206.74 40.1677 207.28C37.2267 208.669 34.2447 209.971 31.2641 211.272L30.513 211.6C29.1348 209.926 27.8349 208.208 26.5717 206.445C26.0303 205.69 25.4789 204.943 24.9245 204.198C23.8769 202.788 22.8529 201.364 21.8583 199.916L21.5364 199.45L21.2415 199.017L20.9816 198.637C20.9011 198.502 20.8521 198.421 20.8114 198.335C20.7481 198.202 20.7048 198.059 20.594 197.696C22.3145 196.8 24.0474 195.99 25.8459 195.262C26.9745 194.804 28.0774 194.305 29.1773 193.782C30.2193 193.288 31.2708 192.818 32.3271 192.355C33.4088 191.88 34.4858 191.399 35.5541 190.894C36.9296 190.245 38.3175 189.626 39.7072 189.008C40.8103 188.517 41.912 188.024 43.0117 187.525C45.6067 186.349 48.2082 185.194 50.8288 184.076C52.1221 183.523 53.4029 182.95 54.6731 182.346C55.6791 181.868 56.6952 181.416 57.715 180.969C58.8727 180.461 60.0242 179.943 61.1672 179.403C62.8806 178.594 64.6114 177.825 66.3427 177.056L66.8096 176.848L70.4705 175.211C72.2134 174.429 73.9547 173.644 75.6958 172.858C77.5752 172.01 79.456 171.166 81.3378 170.323C82.9367 169.607 84.5341 168.888 86.131 168.167C88.5599 167.071 90.9908 165.98 93.4228 164.891L100.302 161.808C102.112 160.996 103.921 160.185 105.732 159.378C107.788 158.461 109.84 157.539 111.892 156.613C113.777 155.762 115.663 154.915 117.551 154.07C118.688 153.561 119.824 153.05 120.958 152.537L123.214 151.517L124.576 150.905C125.045 150.695 125.513 150.483 125.981 150.269L126.687 149.953L127.322 149.665C127.574 149.579 127.706 149.534 127.838 149.533C127.984 149.532 128.131 149.586 128.439 149.697ZM74.4236 125.801L73.7328 124.337C73.5358 124.332 73.4369 124.329 73.3422 124.348C73.2469 124.366 73.1558 124.406 72.9729 124.486C72.6773 124.632 72.3791 124.772 72.0787 124.908L70.9827 125.398C68.9788 126.294 66.9764 127.194 64.9756 128.097C63.1286 128.931 61.2807 129.762 59.4298 130.587C57.6934 131.361 55.9597 132.14 54.2271 132.923C52.6343 133.642 51.0407 134.359 49.4439 135.069C47.9806 135.72 46.52 136.375 45.0717 137.058C43.9286 137.598 42.7771 138.116 41.6194 138.624C40.6063 139.068 39.5968 139.517 38.5976 139.992C37.1348 140.688 35.6558 141.341 34.168 141.982C30.4484 143.584 26.7545 145.24 23.0632 146.906C21.582 147.575 20.1003 148.242 18.6171 148.906C16.6118 149.804 14.6079 150.704 12.6054 151.608C11.1834 152.25 9.76108 152.891 8.33664 153.528C6.29992 154.438 4.26542 155.35 2.24798 156.302C1.54557 156.634 0.84191 156.964 0.137988 157.293L-1.70533 158.155L-1.43916 158.769C-0.375568 161.224 0.690382 163.685 1.96913 166.037C2.36153 166.751 2.74353 167.465 3.10796 168.194L4.16782 170.334L4.51536 171.048L4.8462 171.715C5.01033 172.05 5.08336 172.2 5.16447 172.344C5.22951 172.46 5.29975 172.573 5.42632 172.777C5.70657 172.879 5.86693 172.937 6.02818 172.94C6.24386 172.943 6.46109 172.847 6.96877 172.621L7.35079 172.444C8.42782 171.961 9.49745 171.461 10.5661 170.959C11.7426 170.403 12.9268 169.869 14.1184 169.346C15.1383 168.899 16.1545 168.447 17.1604 167.969C18.444 167.359 19.7385 166.781 21.0449 166.22C23.6298 165.116 26.201 163.985 28.7631 162.828L32.7217 161.042C34.1825 160.383 35.6445 159.726 37.1089 159.075C38.5725 158.424 40.0334 157.769 41.4821 157.085C42.625 156.545 43.7766 156.028 44.9343 155.52C45.9542 155.072 46.9703 154.62 47.9763 154.143C49.2598 153.532 50.5544 152.954 51.8608 152.394C54.4457 151.289 57.0169 150.158 59.579 149.001L63.5376 147.216C64.9984 146.556 66.4605 145.9 67.9248 145.248C69.3968 144.593 70.866 143.935 72.323 143.247C73.3912 142.742 74.4665 142.258 75.55 141.787C77.1994 141.07 78.8283 140.312 80.4537 139.542C79.4857 137.114 78.4299 134.73 77.346 132.352L77.3097 132.273C76.7476 131.041 76.1859 129.809 75.6615 128.56C75.3298 127.768 74.9819 126.986 74.6165 126.208L74.4236 125.801Z" fill="#0A141E"/>
</svg>
