<svg width="27" height="28" viewBox="0 0 27 28" fill="none" xmlns="http://www.w3.org/2000/svg">
<path d="M13.5001 0.666016C6.15341 0.666016 0.166748 6.65268 0.166748 13.9993C0.166748 21.346 6.15341 27.3327 13.5001 27.3327C20.8467 27.3327 26.8334 21.346 26.8334 13.9993C26.8334 6.65268 20.8467 0.666016 13.5001 0.666016ZM19.8734 10.9327L12.3134 18.4927C12.1267 18.6793 11.8734 18.786 11.6067 18.786C11.3401 18.786 11.0867 18.6793 10.9001 18.4927L7.12675 14.7193C6.74008 14.3327 6.74008 13.6927 7.12675 13.306C7.51341 12.9193 8.15341 12.9193 8.54008 13.306L11.6067 16.3727L18.4601 9.51935C18.8467 9.13268 19.4867 9.13268 19.8734 9.51935C20.2601 9.90602 20.2601 10.5327 19.8734 10.9327Z" fill="white"/>
</svg>
