<svg width="48" height="48" viewBox="0 0 48 48" fill="none" xmlns="http://www.w3.org/2000/svg">
<g filter="url(#filter0_i_24723_4624)">
<path d="M24 0C10.776 0 0 10.776 0 24C0 37.224 10.776 48 24 48C37.224 48 48 37.224 48 24C48 10.776 37.224 0 24 0ZM32.064 29.52C32.76 30.216 32.76 31.368 32.064 32.064C31.704 32.424 31.248 32.592 30.792 32.592C30.336 32.592 29.88 32.424 29.52 32.064L24 26.544L18.48 32.064C18.12 32.424 17.664 32.592 17.208 32.592C16.752 32.592 16.296 32.424 15.936 32.064C15.24 31.368 15.24 30.216 15.936 29.52L21.456 24L15.936 18.48C15.24 17.784 15.24 16.632 15.936 15.936C16.632 15.24 17.784 15.24 18.48 15.936L24 21.456L29.52 15.936C30.216 15.24 31.368 15.24 32.064 15.936C32.76 16.632 32.76 17.784 32.064 18.48L26.544 24L32.064 29.52Z" fill="#FA1919"/>
</g>
<defs>
<filter id="filter0_i_24723_4624" x="0" y="0" width="48" height="48" filterUnits="userSpaceOnUse" color-interpolation-filters="sRGB">
<feFlood flood-opacity="0" result="BackgroundImageFix"/>
<feBlend mode="normal" in="SourceGraphic" in2="BackgroundImageFix" result="shape"/>
<feColorMatrix in="SourceAlpha" type="matrix" values="0 0 0 0 0 0 0 0 0 0 0 0 0 0 0 0 0 0 127 0" result="hardAlpha"/>
<feOffset/>
<feGaussianBlur stdDeviation="4"/>
<feComposite in2="hardAlpha" operator="arithmetic" k2="-1" k3="1"/>
<feColorMatrix type="matrix" values="0 0 0 0 0.0392157 0 0 0 0 0.0784314 0 0 0 0 0.117647 0 0 0 0.1 0"/>
<feBlend mode="normal" in2="shape" result="effect1_innerShadow_24723_4624"/>
</filter>
</defs>
</svg>
