<svg width="97" height="96" viewBox="0 0 97 96" fill="none" xmlns="http://www.w3.org/2000/svg">
<path d="M75.7002 39.6396C71.1802 39.6396 67.1402 41.8396 64.6202 45.1996C62.1002 41.8396 58.0602 39.6396 53.5402 39.6396C45.9002 39.6396 39.7002 45.8797 39.7002 53.5597C39.7002 56.5196 40.1802 59.2796 40.9802 61.7996C44.9002 74.2396 57.0602 81.7197 63.0602 83.7597C63.9002 84.0396 65.3002 84.0396 66.1402 83.7597C72.1402 81.7197 84.3002 74.2796 88.2202 61.7996C89.0602 59.2396 89.5002 56.5196 89.5002 53.5597C89.5402 45.8797 83.3402 39.6396 75.7002 39.6396Z" fill="#10BB76"/>
<path d="M83.5 33.3604C83.5 34.2804 82.58 34.8804 81.7 34.6404C76.3 33.2404 70.38 34.4004 65.9 37.6004C65.02 38.2404 63.82 38.2404 62.98 37.6004C59.82 35.2804 55.98 34.0004 51.94 34.0004C41.62 34.0004 33.22 42.4404 33.22 52.8404C33.22 64.1204 38.62 72.5604 44.06 78.2004C44.34 78.4804 44.1 78.9604 43.74 78.8004C32.82 75.0804 8.5 59.6404 8.5 33.3604C8.5 21.7604 17.82 12.4004 29.34 12.4004C36.18 12.4004 42.22 15.6804 46.02 20.7604C49.86 15.6804 55.9 12.4004 62.7 12.4004C74.18 12.4004 83.5 21.7604 83.5 33.3604Z" fill="#10BB76"/>
</svg>
