<svg width="21" height="28" viewBox="0 0 21 28" fill="none" xmlns="http://www.w3.org/2000/svg">
<path d="M11.7684 24.6667C10.1362 24.6667 8.63176 24.4113 7.25516 23.9006C5.89823 23.3702 4.70846 22.6237 3.68584 21.6611C2.68289 20.6986 1.89626 19.5691 1.32596 18.2726C0.77532 16.9761 0.5 15.5519 0.5 14C0.5 12.4481 0.77532 11.0239 1.32596 9.72744C1.89626 8.43094 2.69272 7.30141 3.71534 6.33886C4.73795 5.3763 5.93756 4.63966 7.31416 4.12891C8.69076 3.59853 10.205 3.33333 11.8569 3.33333C13.6858 3.33333 15.3279 3.63781 16.7832 4.24678C18.2581 4.85574 19.497 5.73972 20.5 6.89871L17.4322 9.72744C16.6849 8.94168 15.8687 8.36219 14.9838 7.98895C14.0988 7.59607 13.1352 7.39963 12.0929 7.39963C11.09 7.39963 10.1755 7.55678 9.34956 7.87109C8.5236 8.18539 7.8058 8.6372 7.19616 9.22652C6.60619 9.81584 6.14405 10.5132 5.80973 11.3186C5.49508 12.124 5.33776 13.0178 5.33776 14C5.33776 14.9626 5.49508 15.8465 5.80973 16.6519C6.14405 17.4573 6.60619 18.1645 7.19616 18.7735C7.8058 19.3628 8.51377 19.8146 9.32006 20.1289C10.146 20.4432 11.0506 20.6004 12.0339 20.6004C12.9779 20.6004 13.8923 20.453 14.7773 20.1584C15.6819 19.8441 16.557 19.3235 17.4027 18.5967L20.1165 22.0442C18.9956 22.8889 17.6878 23.5371 16.1932 23.989C14.7183 24.4408 13.2434 24.6667 11.7684 24.6667ZM15.7507 21.4254V13.6759H20.1165V22.0442L15.7507 21.4254Z" fill="white"/>
<path d="M9.83333 20.6667H13.5V28H9.83333V20.6667Z" fill="white"/>
<path d="M9.83333 0H13.5V7.33333H9.83333V0Z" fill="white"/>
</svg>
