<svg width="25" height="24" viewBox="0 0 25 24" fill="none" xmlns="http://www.w3.org/2000/svg">
<path d="M20.79 6.82165L15.03 2.79165C13.46 1.69165 11.05 1.75165 9.53999 2.92165L4.52999 6.83165C3.52999 7.61165 2.73999 9.21165 2.73999 10.4716V17.3716C2.73999 19.9216 4.80999 22.0016 7.35999 22.0016H18.14C20.69 22.0016 22.76 19.9316 22.76 17.3816V10.6016C22.76 9.25165 21.89 7.59165 20.79 6.82165ZM13.5 18.0016C13.5 18.4116 13.16 18.7516 12.75 18.7516C12.34 18.7516 12 18.4116 12 18.0016V15.0016C12 14.5916 12.34 14.2516 12.75 14.2516C13.16 14.2516 13.5 14.5916 13.5 15.0016V18.0016Z" fill="#10BB76"/>
</svg>
