<svg width="48" height="49" viewBox="0 0 48 49" fill="none" xmlns="http://www.w3.org/2000/svg">
<g filter="url(#filter0_i_24723_13209)">
<path d="M24 0.5C10.776 0.5 0 11.276 0 24.5C0 37.724 10.776 48.5 24 48.5C37.224 48.5 48 37.724 48 24.5C48 11.276 37.224 0.5 24 0.5ZM22.2 14.9C22.2 13.916 23.016 13.1 24 13.1C24.984 13.1 25.8 13.916 25.8 14.9V26.9C25.8 27.884 24.984 28.7 24 28.7C23.016 28.7 22.2 27.884 22.2 26.9V14.9ZM26.208 35.012C26.088 35.324 25.92 35.564 25.704 35.804C25.464 36.02 25.2 36.188 24.912 36.308C24.624 36.428 24.312 36.5 24 36.5C23.688 36.5 23.376 36.428 23.088 36.308C22.8 36.188 22.536 36.02 22.296 35.804C22.08 35.564 21.912 35.324 21.792 35.012C21.672 34.724 21.6 34.412 21.6 34.1C21.6 33.788 21.672 33.476 21.792 33.188C21.912 32.9 22.08 32.636 22.296 32.396C22.536 32.18 22.8 32.012 23.088 31.892C23.664 31.652 24.336 31.652 24.912 31.892C25.2 32.012 25.464 32.18 25.704 32.396C25.92 32.636 26.088 32.9 26.208 33.188C26.328 33.476 26.4 33.788 26.4 34.1C26.4 34.412 26.328 34.724 26.208 35.012Z" fill="#00A0B4"/>
</g>
<defs>
<filter id="filter0_i_24723_13209" x="0" y="0.5" width="48" height="48" filterUnits="userSpaceOnUse" color-interpolation-filters="sRGB">
<feFlood flood-opacity="0" result="BackgroundImageFix"/>
<feBlend mode="normal" in="SourceGraphic" in2="BackgroundImageFix" result="shape"/>
<feColorMatrix in="SourceAlpha" type="matrix" values="0 0 0 0 0 0 0 0 0 0 0 0 0 0 0 0 0 0 127 0" result="hardAlpha"/>
<feOffset/>
<feGaussianBlur stdDeviation="4"/>
<feComposite in2="hardAlpha" operator="arithmetic" k2="-1" k3="1"/>
<feColorMatrix type="matrix" values="0 0 0 0 0.0392157 0 0 0 0 0.0784314 0 0 0 0 0.117647 0 0 0 0.1 0"/>
<feBlend mode="normal" in2="shape" result="effect1_innerShadow_24723_13209"/>
</filter>
</defs>
</svg>
