<svg width="25" height="24" viewBox="0 0 25 24" fill="none" xmlns="http://www.w3.org/2000/svg">
<path d="M2.61203 11.1602V15.9872C2.61203 20.8143 4.54715 22.7494 9.3742 22.7494H15.1688C19.9959 22.7494 21.931 20.8143 21.931 15.9872V11.1602" fill="#10BB76"/>
<path d="M2.61203 11.1602V15.9872C2.61203 20.8143 4.54715 22.7494 9.3742 22.7494H15.1688C19.9959 22.7494 21.931 20.8143 21.931 15.9872V11.1602" stroke="white" stroke-width="1.5" stroke-linecap="round" stroke-linejoin="round"/>
<path d="M12.2768 12.0007C14.2442 12.0007 15.6956 10.3988 15.502 8.43145L14.7925 1.25H9.77194L9.05164 8.43145C8.85813 10.3988 10.3095 12.0007 12.2768 12.0007Z" fill="#10BB76" stroke="white" stroke-width="1.5" stroke-linecap="round" stroke-linejoin="round"/>
<path d="M19.0606 12.0007C21.2322 12.0007 22.8233 10.2376 22.6083 8.07668L22.3073 5.12024C21.9203 2.32507 20.8452 1.25 18.0285 1.25H14.7496L15.5021 8.78622C15.6849 10.5601 17.2867 12.0007 19.0606 12.0007Z" fill="#10BB76" stroke="white" stroke-width="1.5" stroke-linecap="round" stroke-linejoin="round"/>
<path d="M5.43944 12.0007C7.2133 12.0007 8.81515 10.5601 8.98716 8.78622L9.22368 6.41032L9.73971 1.25H6.46075C3.64408 1.25 2.56901 2.32507 2.18199 5.12024L1.89172 8.07668C1.6767 10.2376 3.2678 12.0007 5.43944 12.0007Z" fill="#10BB76" stroke="white" stroke-width="1.5" stroke-linecap="round" stroke-linejoin="round"/>
</svg>
