<svg width="44" height="44" viewBox="0 0 44 44" fill="none" xmlns="http://www.w3.org/2000/svg">
<rect x="1" y="1" width="42" height="42" rx="21" stroke="#009696" stroke-opacity="0.25" stroke-width="2"/>
<path d="M32.0002 20.9702V23.0302C32.0002 23.5802 31.5602 24.0302 31.0002 24.0502H29.0402C27.9602 24.0502 26.9702 23.2602 26.8802 22.1802C26.8202 21.5502 27.0602 20.9602 27.4802 20.5502C27.8502 20.1702 28.3602 19.9502 28.9202 19.9502H31.0002C31.5602 19.9702 32.0002 20.4202 32.0002 20.9702Z" fill="#009696"/>
<path opacity="0.4" d="M27.48 20.55C27.06 20.96 26.82 21.55 26.88 22.18C26.97 23.26 27.96 24.05 29.04 24.05H31V25.5C31 28.5 29 30.5 26 30.5H17C14 30.5 12 28.5 12 25.5V18.5C12 15.78 13.64 13.88 16.19 13.56C16.45 13.52 16.72 13.5 17 13.5H26C26.26 13.5 26.51 13.51 26.75 13.55C29.33 13.85 31 15.76 31 18.5V19.95H28.92C28.36 19.95 27.85 20.17 27.48 20.55Z" fill="#009696"/>
<path d="M23 19.75H17C16.59 19.75 16.25 19.41 16.25 19C16.25 18.59 16.59 18.25 17 18.25H23C23.41 18.25 23.75 18.59 23.75 19C23.75 19.41 23.41 19.75 23 19.75Z" fill="#009696"/>
</svg>
