<svg width="40" height="40" viewBox="0 0 40 40" fill="none" xmlns="http://www.w3.org/2000/svg">
<rect x="0.75" y="0.75" width="38.5" height="38.5" rx="19.25" stroke="white" stroke-width="1.5"/>
<path d="M20.02 10.9102C16.71 10.9102 14.02 13.6002 14.02 16.9102V19.8002C14.02 20.4102 13.76 21.3402 13.45 21.8602L12.3 23.7702C11.59 24.9502 12.08 26.2602 13.38 26.7002C17.69 28.1402 22.34 28.1402 26.65 26.7002C27.86 26.3002 28.39 24.8702 27.73 23.7702L26.58 21.8602C26.28 21.3402 26.02 20.4102 26.02 19.8002V16.9102C26.02 13.6102 23.32 10.9102 20.02 10.9102Z" stroke="white" stroke-width="1.5" stroke-miterlimit="10" stroke-linecap="round"/>
<path d="M21.87 11.2014C21.56 11.1114 21.24 11.0414 20.91 11.0014C19.95 10.8814 19.03 10.9514 18.17 11.2014C18.46 10.4614 19.18 9.94141 20.02 9.94141C20.86 9.94141 21.58 10.4614 21.87 11.2014Z" stroke="white" stroke-width="1.5" stroke-miterlimit="10" stroke-linecap="round" stroke-linejoin="round"/>
<path d="M23.02 27.0586C23.02 28.7086 21.67 30.0586 20.02 30.0586C19.2 30.0586 18.44 29.7186 17.9 29.1786C17.36 28.6386 17.02 27.8786 17.02 27.0586" stroke="white" stroke-width="1.5" stroke-miterlimit="10"/>
</svg>
